<svg width="12" height="14" viewBox="0 0 12 14" fill="none" xmlns="http://www.w3.org/2000/svg">
<path fill-rule="evenodd" clip-rule="evenodd" d="M0.0578251 9.87584L0.570424 5.74606C0.882696 4.27244 1.76649 3.66602 2.60903 3.66602H9.37886C10.2332 3.66602 11.1464 4.22999 11.4116 5.74606L11.9301 9.87584C12.3543 12.908 10.7929 13.666 8.75431 13.666H3.22768C1.19497 13.666 -0.319258 12.5684 0.0578251 9.87584ZM7.93534 7.0984C8.26074 7.0984 8.52453 6.82689 8.52453 6.49197C8.52453 6.15705 8.26074 5.88554 7.93534 5.88554C7.60993 5.88554 7.34614 6.15705 7.34614 6.49197C7.34614 6.82689 7.60993 7.0984 7.93534 7.0984ZM4.66531 6.49197C4.66531 6.82689 4.40152 7.0984 4.07612 7.0984C3.75072 7.0984 3.48693 6.82689 3.48693 6.49197C3.48693 6.15705 3.75072 5.88554 4.07612 5.88554C4.40152 5.88554 4.66531 6.15705 4.66531 6.49197Z" fill="#273433"/>
<path opacity="0.4" d="M2.68401 3.51589C2.68191 3.5676 2.69185 3.61909 2.71304 3.66634H3.67111C3.68967 3.6183 3.6995 3.56736 3.70015 3.51589C3.70015 2.23756 4.74001 1.20126 6.02275 1.20126C7.30549 1.20126 8.34536 2.23756 8.34536 3.51589C8.33657 3.56566 8.33657 3.61657 8.34536 3.66634H9.32666C9.33545 3.61657 9.33545 3.56566 9.32666 3.51589C9.2521 1.73695 7.78326 0.333008 5.99662 0.333008C4.20999 0.333008 2.74114 1.73695 2.66659 3.51589H2.68401Z" fill="#273433"/>
</svg>
