<svg width="12" height="13" viewBox="0 0 12 13" fill="none" xmlns="http://www.w3.org/2000/svg">
    <path opacity=".4" d="M9.404 5.01c-.225 0-.524-.005-.897-.005a1.668 1.668 0 0 1-1.654-1.667V1.728a.228.228 0 0 0-.226-.229H3.982C2.748 1.5 1.75 2.513 1.75 3.755v5.387c0 1.303 1.045 2.358 2.335 2.358h3.938a2.238 2.238 0 0 0 2.227-2.249V5.236c0-.127-.1-.23-.226-.23-.212.002-.465.005-.62.005" fill="#24D39E"/>
    <path opacity=".4" d="M8.042 1.784a.239.239 0 0 0-.41.167v1.318c0 .553.455 1.008 1.008 1.008.348.004.832.005 1.243.004.211 0 .318-.252.172-.404L8.042 1.784" fill="#24D39E"/>
    <path fill-rule="evenodd" clip-rule="evenodd" d="M4.487 6.194h1.692a.372.372 0 1 0 0-.745H4.487a.372.372 0 0 0 0 .745zm0 2.497h2.722a.372.372 0 1 0 0-.745H4.487a.372.372 0 0 0 0 .745z" fill="#24D39E"/>
</svg>
