<svg width="24" height="25" viewBox="0 0 24 25" fill="none" xmlns="http://www.w3.org/2000/svg">
    <path fill-rule="evenodd" clip-rule="evenodd" d="M16.71 10.572c0 .5.4.9.9.9s.91-.4.91-.9-.41-.909-.91-.909-.9.41-.9.91zm-1.94 6.033a3.91 3.91 0 0 1-2.77 1.15 3.921 3.921 0 0 1-3.93-3.926 3.865 3.865 0 0 1 1.14-2.767A3.921 3.921 0 0 1 12 9.902c1.05 0 2.04.41 2.78 1.15.74.749 1.15 1.738 1.15 2.777a3.958 3.958 0 0 1-1.16 2.776zM12 11.401c-.65 0-1.26.25-1.73.72-.46.459-.71 1.068-.7 1.697v.01c0 .65.25 1.26.71 1.719.46.46 1.07.709 1.72.709 1.34 0 2.42-1.089 2.43-2.428 0-.649-.25-1.258-.71-1.718-.46-.46-1.07-.709-1.72-.709z" fill="#58C4F6"/>
    <path opacity=".4" d="m17.44 6.736-.1-.22c-.27-.569-.58-1.228-.77-1.608-.46-.899-1.25-1.398-2.22-1.408H9.64c-.97.01-1.75.51-2.21 1.408-.2.4-.54 1.12-.82 1.709l-.06.12c-.03.08-.11.12-.19.12A4.361 4.361 0 0 0 2 11.21v5.934A4.361 4.361 0 0 0 6.36 21.5h11.28c2.4 0 4.36-1.958 4.36-4.355V11.21a4.368 4.368 0 0 0-4.36-4.355c-.09 0-.16-.05-.2-.12z" fill="#58C4F6"/>
</svg>
