<svg width="64" height="64" viewBox="0 0 64 64" fill="none" xmlns="http://www.w3.org/2000/svg">
<rect width="64" height="64" rx="32" fill="#E9ECEC"/>
<path d="M54.4939 17.5794H43.5371C43.5371 17.5794 44.6238 14.6111 46.2955 14.6111C47.9672 14.6111 48.492 16.6591 48.492 16.6591C48.492 16.6591 49.6197 15.5468 50.5464 15.5468C51.4731 15.5468 52.2782 17.0239 52.2782 17.0239C52.2782 17.0239 53.5877 16.2264 54.4939 17.5794Z" fill="#EBEBEB"/>
<path d="M44.9281 9.94818H39.8081C39.8081 9.94818 40.9524 8.28418 41.8561 8.28418C42.7598 8.28418 43.0247 9.38882 43.0247 9.38882C43.0247 9.38882 43.6648 8.87682 44.2497 8.96642C44.8347 9.05602 44.9281 9.94818 44.9281 9.94818Z" fill="#EBEBEB"/>
<path d="M17.4827 19.0029H7.51025C7.51025 19.0029 8.87601 15.954 10.3365 15.7632C11.797 15.5725 12.4971 18.0288 12.4971 18.0288C12.4971 18.0288 13.4392 17.161 14.1803 17.161C14.9215 17.161 15.4885 18.304 15.4885 18.304C15.4885 18.304 16.9746 17.5207 17.4827 19.0029Z" fill="#EBEBEB"/>
<path d="M27.8292 6.19265H21.0913C21.0913 6.19265 22.2433 3.98337 23.5054 3.95137C24.7675 3.91937 25.4254 5.62305 25.4254 5.62305C25.4254 5.62305 27.3735 4.05633 27.8292 6.19265Z" fill="#EBEBEB"/>
<path d="M35.1144 12.3047H30.5679C30.5679 12.3047 31.3487 10.8135 32.196 10.793C33.0434 10.7725 33.4888 11.9207 33.4888 11.9207C33.4888 11.9207 34.8072 10.8634 35.1144 12.3047Z" fill="#EBEBEB"/>
<path d="M46.8293 19.4585H42.1714V43.8783H46.8293V19.4585Z" fill="#DBDBDB"/>
<path d="M43.7995 20.2522H42.8945V21.184H43.7995V20.2522Z" fill="#EBEBEB"/>
<path d="M44.9582 20.2522H44.0532V21.184H44.9582V20.2522Z" fill="#EBEBEB"/>
<path d="M43.7995 21.8354H42.8945V22.7673H43.7995V21.8354Z" fill="#EBEBEB"/>
<path d="M44.9582 21.8354H44.0532V22.7673H44.9582V21.8354Z" fill="#EBEBEB"/>
<path d="M43.7995 23.4189H42.8945V24.3508H43.7995V23.4189Z" fill="#EBEBEB"/>
<path d="M44.9582 23.4189H44.0532V24.3508H44.9582V23.4189Z" fill="#EBEBEB"/>
<path d="M43.7995 25.001H42.8945V25.9328H43.7995V25.001Z" fill="#EBEBEB"/>
<path d="M44.9582 25.001H44.0532V25.9328H44.9582V25.001Z" fill="#EBEBEB"/>
<path d="M43.7995 26.5845H42.8945V27.5163H43.7995V26.5845Z" fill="#EBEBEB"/>
<path d="M44.9582 26.5845H44.0532V27.5163H44.9582V26.5845Z" fill="#EBEBEB"/>
<path d="M43.7995 28.1677H42.8945V29.0996H43.7995V28.1677Z" fill="#EBEBEB"/>
<path d="M44.9582 28.1677H44.0532V29.0996H44.9582V28.1677Z" fill="#EBEBEB"/>
<path d="M43.7995 29.751H42.8945V30.6828H43.7995V29.751Z" fill="#EBEBEB"/>
<path d="M44.9582 29.751H44.0532V30.6828H44.9582V29.751Z" fill="#EBEBEB"/>
<path d="M43.7995 31.333H42.8945V32.2649H43.7995V31.333Z" fill="#EBEBEB"/>
<path d="M44.9582 31.333H44.0532V32.2649H44.9582V31.333Z" fill="#EBEBEB"/>
<path d="M43.7995 32.9165H42.8945V33.8483H43.7995V32.9165Z" fill="#EBEBEB"/>
<path d="M44.9582 32.9165H44.0532V33.8483H44.9582V32.9165Z" fill="#EBEBEB"/>
<path d="M43.7995 34.5H42.8945V35.4318H43.7995V34.5Z" fill="#EBEBEB"/>
<path d="M44.9582 34.5H44.0532V35.4318H44.9582V34.5Z" fill="#EBEBEB"/>
<path d="M43.7995 36.082H42.8945V37.0139H43.7995V36.082Z" fill="#EBEBEB"/>
<path d="M44.9582 36.082H44.0532V37.0139H44.9582V36.082Z" fill="#EBEBEB"/>
<path d="M43.7995 37.6655H42.8945V38.5974H43.7995V37.6655Z" fill="#EBEBEB"/>
<path d="M44.9582 37.6655H44.0532V38.5974H44.9582V37.6655Z" fill="#EBEBEB"/>
<path d="M43.7995 39.2485H42.8945V40.1804H43.7995V39.2485Z" fill="#EBEBEB"/>
<path d="M44.9582 39.2485H44.0532V40.1804H44.9582V39.2485Z" fill="#EBEBEB"/>
<path d="M43.7995 40.832H42.8945V41.7639H43.7995V40.832Z" fill="#EBEBEB"/>
<path d="M45.2015 41.7639H46.1064V40.8321H45.2015V41.7639Z" fill="#EBEBEB"/>
<path d="M45.2015 40.1804H46.1064V39.2486H45.2015V40.1804Z" fill="#EBEBEB"/>
<path d="M45.2015 38.5984H46.1064V37.6665H45.2015V38.5984Z" fill="#EBEBEB"/>
<path d="M45.2015 37.0151H46.1064V36.0833H45.2015V37.0151Z" fill="#EBEBEB"/>
<path d="M45.2015 35.4316H46.1064V34.4998H45.2015V35.4316Z" fill="#EBEBEB"/>
<path d="M45.2015 33.8481H46.1064V32.9163H45.2015V33.8481Z" fill="#EBEBEB"/>
<path d="M45.2015 32.2664H46.1064V31.3345H45.2015V32.2664Z" fill="#EBEBEB"/>
<path d="M45.2015 30.6816H46.1064V29.7498H45.2015V30.6816Z" fill="#EBEBEB"/>
<path d="M45.2015 29.0996H46.1064V28.1678H45.2015V29.0996Z" fill="#EBEBEB"/>
<path d="M45.2015 27.5173H46.1064V26.5855H45.2015V27.5173Z" fill="#EBEBEB"/>
<path d="M45.2015 25.9341H46.1064V25.0022H45.2015V25.9341Z" fill="#EBEBEB"/>
<path d="M45.2015 24.3508H46.1064V23.419H45.2015V24.3508Z" fill="#EBEBEB"/>
<path d="M45.2015 22.7673H46.1064V21.8355H45.2015V22.7673Z" fill="#EBEBEB"/>
<path d="M45.2015 21.1853H46.1064V20.2535H45.2015V21.1853Z" fill="#EBEBEB"/>
<path d="M44.9582 40.832H44.0532V41.7639H44.9582V40.832Z" fill="#EBEBEB"/>
<path d="M50.5014 19.4585H46.8291V43.8783H50.5014V19.4585Z" fill="#A6A6A6"/>
<path d="M49.375 41.7639H50.1226V40.8321H49.375V41.7639Z" fill="#C7C7C7"/>
<path d="M48.42 41.7639H49.1675V40.8321H48.42V41.7639Z" fill="#C7C7C7"/>
<path d="M49.375 40.1804H50.1226V39.2486H49.375V40.1804Z" fill="#C7C7C7"/>
<path d="M48.42 40.1804H49.1675V39.2486H48.42V40.1804Z" fill="#C7C7C7"/>
<path d="M49.375 38.5984H50.1226V37.6665H49.375V38.5984Z" fill="#C7C7C7"/>
<path d="M48.42 38.5984H49.1675V37.6665H48.42V38.5984Z" fill="#C7C7C7"/>
<path d="M49.375 37.0151H50.1226V36.0833H49.375V37.0151Z" fill="#C7C7C7"/>
<path d="M48.42 37.0151H49.1675V36.0833H48.42V37.0151Z" fill="#C7C7C7"/>
<path d="M49.375 35.4316H50.1226V34.4998H49.375V35.4316Z" fill="#C7C7C7"/>
<path d="M48.42 35.4316H49.1675V34.4998H48.42V35.4316Z" fill="#C7C7C7"/>
<path d="M49.375 33.8481H50.1226V32.9163H49.375V33.8481Z" fill="#C7C7C7"/>
<path d="M48.42 33.8481H49.1675V32.9163H48.42V33.8481Z" fill="#C7C7C7"/>
<path d="M49.375 32.2664H50.1226V31.3345H49.375V32.2664Z" fill="#C7C7C7"/>
<path d="M48.42 32.2664H49.1675V31.3345H48.42V32.2664Z" fill="#C7C7C7"/>
<path d="M49.375 30.6816H50.1226V29.7498H49.375V30.6816Z" fill="#C7C7C7"/>
<path d="M48.42 30.6816H49.1675V29.7498H48.42V30.6816Z" fill="#C7C7C7"/>
<path d="M49.375 29.0996H50.1226V28.1678H49.375V29.0996Z" fill="#C7C7C7"/>
<path d="M48.42 29.0996H49.1675V28.1678H48.42V29.0996Z" fill="#C7C7C7"/>
<path d="M49.375 27.5173H50.1226V26.5855H49.375V27.5173Z" fill="#C7C7C7"/>
<path d="M48.42 27.5173H49.1675V26.5855H48.42V27.5173Z" fill="#C7C7C7"/>
<path d="M49.375 25.9341H50.1226V25.0022H49.375V25.9341Z" fill="#C7C7C7"/>
<path d="M48.42 25.9341H49.1675V25.0022H48.42V25.9341Z" fill="#C7C7C7"/>
<path d="M49.375 24.3508H50.1226V23.419H49.375V24.3508Z" fill="#C7C7C7"/>
<path d="M48.42 24.3508H49.1675V23.419H48.42V24.3508Z" fill="#C7C7C7"/>
<path d="M49.375 22.7673H50.1226V21.8355H49.375V22.7673Z" fill="#C7C7C7"/>
<path d="M48.42 22.7673H49.1675V21.8355H48.42V22.7673Z" fill="#C7C7C7"/>
<path d="M49.375 21.1853H50.1226V20.2535H49.375V21.1853Z" fill="#C7C7C7"/>
<path d="M48.2182 20.2522H47.4707V21.184H48.2182V20.2522Z" fill="#C7C7C7"/>
<path d="M48.2182 21.8354H47.4707V22.7673H48.2182V21.8354Z" fill="#C7C7C7"/>
<path d="M48.2182 23.4189H47.4707V24.3508H48.2182V23.4189Z" fill="#C7C7C7"/>
<path d="M48.2182 25.001H47.4707V25.9328H48.2182V25.001Z" fill="#C7C7C7"/>
<path d="M48.2182 26.5845H47.4707V27.5163H48.2182V26.5845Z" fill="#C7C7C7"/>
<path d="M48.2182 28.1677H47.4707V29.0996H48.2182V28.1677Z" fill="#C7C7C7"/>
<path d="M48.2182 29.751H47.4707V30.6828H48.2182V29.751Z" fill="#C7C7C7"/>
<path d="M48.2182 31.333H47.4707V32.2649H48.2182V31.333Z" fill="#C7C7C7"/>
<path d="M48.2182 32.9165H47.4707V33.8483H48.2182V32.9165Z" fill="#C7C7C7"/>
<path d="M48.2182 34.5H47.4707V35.4318H48.2182V34.5Z" fill="#C7C7C7"/>
<path d="M48.2182 36.082H47.4707V37.0139H48.2182V36.082Z" fill="#C7C7C7"/>
<path d="M48.2182 37.6655H47.4707V38.5974H48.2182V37.6655Z" fill="#C7C7C7"/>
<path d="M48.2182 39.2485H47.4707V40.1804H48.2182V39.2485Z" fill="#C7C7C7"/>
<path d="M48.2182 40.832H47.4707V41.7639H48.2182V40.832Z" fill="#C7C7C7"/>
<path d="M48.42 21.1853H49.1675V20.2535H48.42V21.1853Z" fill="#C7C7C7"/>
<path d="M18.1535 18.1426H12.6431V43.8782H18.1535V18.1426Z" fill="#EBEBEB"/>
<path d="M18.1538 17.5796H12.5103V18.1428H18.1538V17.5796Z" fill="#C7C7C7"/>
<path d="M13.6992 18.9734H13.1411V43.8796H13.6992V18.9734Z" fill="white"/>
<path d="M14.687 18.9734H14.1289V43.8796H14.687V18.9734Z" fill="white"/>
<path d="M15.6767 18.9734H15.1187V43.8796H15.6767V18.9734Z" fill="white"/>
<path d="M16.666 18.9734H16.1079V43.8796H16.666V18.9734Z" fill="white"/>
<path d="M17.6543 18.9734H17.0962V43.8796H17.6543V18.9734Z" fill="white"/>
<path d="M13.6992 19.6853H13.1411V20.7976H13.6992V19.6853Z" fill="#EBEBEB"/>
<path d="M14.687 19.6853H14.1289V20.7976H14.687V19.6853Z" fill="#EBEBEB"/>
<path d="M15.6767 19.6853H15.1187V20.7976H15.6767V19.6853Z" fill="#EBEBEB"/>
<path d="M16.666 19.6853H16.1079V20.7976H16.666V19.6853Z" fill="#EBEBEB"/>
<path d="M17.6543 19.6853H17.0962V20.7976H17.6543V19.6853Z" fill="#EBEBEB"/>
<path d="M13.6992 21.4924H13.1411V22.6047H13.6992V21.4924Z" fill="#EBEBEB"/>
<path d="M14.687 21.4924H14.1289V22.6047H14.687V21.4924Z" fill="#EBEBEB"/>
<path d="M15.6767 21.4924H15.1187V22.6047H15.6767V21.4924Z" fill="#EBEBEB"/>
<path d="M16.666 21.4924H16.1079V22.6047H16.666V21.4924Z" fill="#EBEBEB"/>
<path d="M17.6543 21.4924H17.0962V22.6047H17.6543V21.4924Z" fill="#EBEBEB"/>
<path d="M13.6992 23.3H13.1411V24.4124H13.6992V23.3Z" fill="#EBEBEB"/>
<path d="M14.687 23.3H14.1289V24.4124H14.687V23.3Z" fill="#EBEBEB"/>
<path d="M15.6767 23.3H15.1187V24.4124H15.6767V23.3Z" fill="#EBEBEB"/>
<path d="M16.666 23.3H16.1079V24.4124H16.666V23.3Z" fill="#EBEBEB"/>
<path d="M17.6543 23.3H17.0962V24.4124H17.6543V23.3Z" fill="#EBEBEB"/>
<path d="M13.6992 25.1084H13.1411V26.2207H13.6992V25.1084Z" fill="#EBEBEB"/>
<path d="M14.687 25.1084H14.1289V26.2207H14.687V25.1084Z" fill="#EBEBEB"/>
<path d="M15.6767 25.1084H15.1187V26.2207H15.6767V25.1084Z" fill="#EBEBEB"/>
<path d="M16.666 25.1084H16.1079V26.2207H16.666V25.1084Z" fill="#EBEBEB"/>
<path d="M17.6543 25.1084H17.0962V26.2207H17.6543V25.1084Z" fill="#EBEBEB"/>
<path d="M13.6992 26.916H13.1411V28.0283H13.6992V26.916Z" fill="#EBEBEB"/>
<path d="M14.687 26.916H14.1289V28.0283H14.687V26.916Z" fill="#EBEBEB"/>
<path d="M15.6767 26.916H15.1187V28.0283H15.6767V26.916Z" fill="#EBEBEB"/>
<path d="M16.666 26.916H16.1079V28.0283H16.666V26.916Z" fill="#EBEBEB"/>
<path d="M17.6543 26.916H17.0962V28.0283H17.6543V26.916Z" fill="#EBEBEB"/>
<path d="M13.6992 28.7231H13.1411V29.8355H13.6992V28.7231Z" fill="#EBEBEB"/>
<path d="M14.687 28.7231H14.1289V29.8355H14.687V28.7231Z" fill="#EBEBEB"/>
<path d="M15.6767 28.7231H15.1187V29.8355H15.6767V28.7231Z" fill="#EBEBEB"/>
<path d="M16.666 28.7231H16.1079V29.8355H16.666V28.7231Z" fill="#EBEBEB"/>
<path d="M17.6543 28.7231H17.0962V29.8355H17.6543V28.7231Z" fill="#EBEBEB"/>
<path d="M13.6992 30.5308H13.1411V31.6431H13.6992V30.5308Z" fill="#EBEBEB"/>
<path d="M14.687 30.5308H14.1289V31.6431H14.687V30.5308Z" fill="#EBEBEB"/>
<path d="M15.6767 30.5308H15.1187V31.6431H15.6767V30.5308Z" fill="#EBEBEB"/>
<path d="M16.666 30.5308H16.1079V31.6431H16.666V30.5308Z" fill="#EBEBEB"/>
<path d="M17.6543 30.5308H17.0962V31.6431H17.6543V30.5308Z" fill="#EBEBEB"/>
<path d="M13.6992 32.3391H13.1411V33.4514H13.6992V32.3391Z" fill="#EBEBEB"/>
<path d="M14.687 32.3391H14.1289V33.4514H14.687V32.3391Z" fill="#EBEBEB"/>
<path d="M15.6767 32.3391H15.1187V33.4514H15.6767V32.3391Z" fill="#EBEBEB"/>
<path d="M16.666 32.3391H16.1079V33.4514H16.666V32.3391Z" fill="#EBEBEB"/>
<path d="M17.6543 32.3391H17.0962V33.4514H17.6543V32.3391Z" fill="#EBEBEB"/>
<path d="M13.6992 34.1467H13.1411V35.259H13.6992V34.1467Z" fill="#EBEBEB"/>
<path d="M14.687 34.1467H14.1289V35.259H14.687V34.1467Z" fill="#EBEBEB"/>
<path d="M15.6767 34.1467H15.1187V35.259H15.6767V34.1467Z" fill="#EBEBEB"/>
<path d="M16.666 34.1467H16.1079V35.259H16.666V34.1467Z" fill="#EBEBEB"/>
<path d="M17.6543 34.1467H17.0962V35.259H17.6543V34.1467Z" fill="#EBEBEB"/>
<path d="M13.6992 35.9539H13.1411V37.0662H13.6992V35.9539Z" fill="#EBEBEB"/>
<path d="M14.687 35.9539H14.1289V37.0662H14.687V35.9539Z" fill="#EBEBEB"/>
<path d="M15.6767 35.9539H15.1187V37.0662H15.6767V35.9539Z" fill="#EBEBEB"/>
<path d="M16.666 35.9539H16.1079V37.0662H16.666V35.9539Z" fill="#EBEBEB"/>
<path d="M17.6543 35.9539H17.0962V37.0662H17.6543V35.9539Z" fill="#EBEBEB"/>
<path d="M13.6992 37.7627H13.1411V38.875H13.6992V37.7627Z" fill="#EBEBEB"/>
<path d="M14.687 37.7627H14.1289V38.875H14.687V37.7627Z" fill="#EBEBEB"/>
<path d="M15.6767 37.7627H15.1187V38.875H15.6767V37.7627Z" fill="#EBEBEB"/>
<path d="M16.666 37.7627H16.1079V38.875H16.666V37.7627Z" fill="#EBEBEB"/>
<path d="M17.6543 37.7627H17.0962V38.875H17.6543V37.7627Z" fill="#EBEBEB"/>
<path d="M13.6992 39.5698H13.1411V40.6821H13.6992V39.5698Z" fill="#EBEBEB"/>
<path d="M14.687 39.5698H14.1289V40.6821H14.687V39.5698Z" fill="#EBEBEB"/>
<path d="M15.6767 39.5698H15.1187V40.6821H15.6767V39.5698Z" fill="#EBEBEB"/>
<path d="M16.666 39.5698H16.1079V40.6821H16.666V39.5698Z" fill="#EBEBEB"/>
<path d="M17.6543 39.5698H17.0962V40.6821H17.6543V39.5698Z" fill="#EBEBEB"/>
<path d="M13.6992 41.3772H13.1411V42.4895H13.6992V41.3772Z" fill="#EBEBEB"/>
<path d="M14.687 41.3772H14.1289V42.4895H14.687V41.3772Z" fill="#EBEBEB"/>
<path d="M15.6767 41.3772H15.1187V42.4895H15.6767V41.3772Z" fill="#EBEBEB"/>
<path d="M16.666 41.3772H16.1079V42.4895H16.666V41.3772Z" fill="#EBEBEB"/>
<path d="M17.6543 41.3772H17.0962V42.4895H17.6543V41.3772Z" fill="#EBEBEB"/>
<path d="M13.6992 43.1846H13.1411V43.8783H13.6992V43.1846Z" fill="#EBEBEB"/>
<path d="M14.687 43.1846H14.1289V43.8783H14.687V43.1846Z" fill="#EBEBEB"/>
<path d="M15.6767 43.1846H15.1187V43.8783H15.6767V43.1846Z" fill="#EBEBEB"/>
<path d="M16.666 43.1846H16.1079V43.8783H16.666V43.1846Z" fill="#EBEBEB"/>
<path d="M17.6543 43.1846H17.0962V43.8783H17.6543V43.1846Z" fill="#EBEBEB"/>
<path d="M21.6912 18.1426H18.1533V43.8782H21.6912V18.1426Z" fill="#DBDBDB"/>
<path d="M21.8448 17.5796H18.1533V18.1428H21.8448V17.5796Z" fill="#C7C7C7"/>
<path d="M19.2094 18.9734H18.6514V43.8796H19.2094V18.9734Z" fill="#C7C7C7"/>
<path d="M20.1992 18.9734H19.6411V43.8796H20.1992V18.9734Z" fill="#C7C7C7"/>
<path d="M21.1885 18.9734H20.6304V43.8796H21.1885V18.9734Z" fill="#C7C7C7"/>
<path d="M19.2094 19.6853H18.6514V20.7976H19.2094V19.6853Z" fill="#DBDBDB"/>
<path d="M20.1992 19.6853H19.6411V20.7976H20.1992V19.6853Z" fill="#DBDBDB"/>
<path d="M21.1885 19.6853H20.6304V20.7976H21.1885V19.6853Z" fill="#DBDBDB"/>
<path d="M19.2094 21.4924H18.6514V22.6047H19.2094V21.4924Z" fill="#DBDBDB"/>
<path d="M20.1992 21.4924H19.6411V22.6047H20.1992V21.4924Z" fill="#DBDBDB"/>
<path d="M21.1885 21.4924H20.6304V22.6047H21.1885V21.4924Z" fill="#DBDBDB"/>
<path d="M19.2094 23.3H18.6514V24.4124H19.2094V23.3Z" fill="#DBDBDB"/>
<path d="M20.1992 23.3H19.6411V24.4124H20.1992V23.3Z" fill="#DBDBDB"/>
<path d="M21.1885 23.3H20.6304V24.4124H21.1885V23.3Z" fill="#DBDBDB"/>
<path d="M19.2094 25.1084H18.6514V26.2207H19.2094V25.1084Z" fill="#DBDBDB"/>
<path d="M20.1992 25.1084H19.6411V26.2207H20.1992V25.1084Z" fill="#DBDBDB"/>
<path d="M21.1885 25.1084H20.6304V26.2207H21.1885V25.1084Z" fill="#DBDBDB"/>
<path d="M19.2094 26.916H18.6514V28.0283H19.2094V26.916Z" fill="#DBDBDB"/>
<path d="M20.1992 26.916H19.6411V28.0283H20.1992V26.916Z" fill="#DBDBDB"/>
<path d="M21.1885 26.916H20.6304V28.0283H21.1885V26.916Z" fill="#DBDBDB"/>
<path d="M19.2094 28.7231H18.6514V29.8355H19.2094V28.7231Z" fill="#DBDBDB"/>
<path d="M20.1992 28.7231H19.6411V29.8355H20.1992V28.7231Z" fill="#DBDBDB"/>
<path d="M21.1885 28.7231H20.6304V29.8355H21.1885V28.7231Z" fill="#DBDBDB"/>
<path d="M19.2094 30.5308H18.6514V31.6431H19.2094V30.5308Z" fill="#DBDBDB"/>
<path d="M20.1992 30.5308H19.6411V31.6431H20.1992V30.5308Z" fill="#DBDBDB"/>
<path d="M21.1885 30.5308H20.6304V31.6431H21.1885V30.5308Z" fill="#DBDBDB"/>
<path d="M19.2094 32.3391H18.6514V33.4514H19.2094V32.3391Z" fill="#DBDBDB"/>
<path d="M20.1992 32.3391H19.6411V33.4514H20.1992V32.3391Z" fill="#DBDBDB"/>
<path d="M21.1885 32.3391H20.6304V33.4514H21.1885V32.3391Z" fill="#DBDBDB"/>
<path d="M19.2094 34.1467H18.6514V35.259H19.2094V34.1467Z" fill="#DBDBDB"/>
<path d="M20.1992 34.1467H19.6411V35.259H20.1992V34.1467Z" fill="#DBDBDB"/>
<path d="M21.1885 34.1467H20.6304V35.259H21.1885V34.1467Z" fill="#DBDBDB"/>
<path d="M19.2094 35.9539H18.6514V37.0662H19.2094V35.9539Z" fill="#DBDBDB"/>
<path d="M20.1992 35.9539H19.6411V37.0662H20.1992V35.9539Z" fill="#DBDBDB"/>
<path d="M21.1885 35.9539H20.6304V37.0662H21.1885V35.9539Z" fill="#DBDBDB"/>
<path d="M19.2094 37.7627H18.6514V38.875H19.2094V37.7627Z" fill="#DBDBDB"/>
<path d="M20.1992 37.7627H19.6411V38.875H20.1992V37.7627Z" fill="#DBDBDB"/>
<path d="M21.1885 37.7627H20.6304V38.875H21.1885V37.7627Z" fill="#DBDBDB"/>
<path d="M19.2094 39.5698H18.6514V40.6821H19.2094V39.5698Z" fill="#DBDBDB"/>
<path d="M20.1992 39.5698H19.6411V40.6821H20.1992V39.5698Z" fill="#DBDBDB"/>
<path d="M21.1885 39.5698H20.6304V40.6821H21.1885V39.5698Z" fill="#DBDBDB"/>
<path d="M19.2094 41.3772H18.6514V42.4895H19.2094V41.3772Z" fill="#DBDBDB"/>
<path d="M20.1992 41.3772H19.6411V42.4895H20.1992V41.3772Z" fill="#DBDBDB"/>
<path d="M21.1885 41.3772H20.6304V42.4895H21.1885V41.3772Z" fill="#DBDBDB"/>
<path d="M19.2094 43.1846H18.6514V43.8783H19.2094V43.1846Z" fill="#DBDBDB"/>
<path d="M20.1992 43.1846H19.6411V43.8783H20.1992V43.1846Z" fill="#DBDBDB"/>
<path d="M21.1885 43.1846H20.6304V43.8783H21.1885V43.1846Z" fill="#DBDBDB"/>
<path d="M11.212 27.6006H5.72461V43.8783H11.212V27.6006Z" fill="#EBEBEB"/>
<path d="M11.211 26.2207H6.50439V27.6005H11.211V26.2207Z" fill="#C7C7C7"/>
<path d="M10.6103 28.321H6.32617V43.8782H10.6103V28.321Z" fill="#DBDBDB"/>
<path d="M10.6103 29.8062H6.32617V30.1735H10.6103V29.8062Z" fill="white"/>
<path d="M10.6103 31.3281H6.32617V31.6955H10.6103V31.3281Z" fill="white"/>
<path d="M10.6103 32.8511H6.32617V33.2184H10.6103V32.8511Z" fill="white"/>
<path d="M10.6103 34.3745H6.32617V34.7419H10.6103V34.3745Z" fill="white"/>
<path d="M10.6103 35.8965H6.32617V36.2638H10.6103V35.8965Z" fill="white"/>
<path d="M10.6103 37.4197H6.32617V37.787H10.6103V37.4197Z" fill="white"/>
<path d="M10.6103 38.9426H6.32617V39.31H10.6103V38.9426Z" fill="white"/>
<path d="M10.6103 40.4646H6.32617V40.832H10.6103V40.4646Z" fill="white"/>
<path d="M10.6103 41.9878H6.32617V42.3552H10.6103V41.9878Z" fill="white"/>
<path d="M10.6103 43.511H6.32617V43.8783H10.6103V43.511Z" fill="white"/>
<path d="M14.6487 27.6006H11.2119V43.8783H14.6487V27.6006Z" fill="#DBDBDB"/>
<path d="M14.1329 26.2207H11.2119V27.6005H14.1329V26.2207Z" fill="#A6A6A6"/>
<path d="M14.3287 28.321H11.6855V43.8782H14.3287V28.321Z" fill="#C7C7C7"/>
<path d="M14.3287 29.8062H11.6855V30.1735H14.3287V29.8062Z" fill="white"/>
<path d="M14.3287 31.3281H11.6855V31.6955H14.3287V31.3281Z" fill="white"/>
<path d="M14.3287 32.8511H11.6855V33.2184H14.3287V32.8511Z" fill="white"/>
<path d="M14.3287 34.3745H11.6855V34.7419H14.3287V34.3745Z" fill="white"/>
<path d="M14.3287 35.8965H11.6855V36.2638H14.3287V35.8965Z" fill="white"/>
<path d="M14.3287 37.4197H11.6855V37.787H14.3287V37.4197Z" fill="white"/>
<path d="M14.3287 38.9426H11.6855V39.31H14.3287V38.9426Z" fill="white"/>
<path d="M14.3287 40.4646H11.6855V40.832H14.3287V40.4646Z" fill="white"/>
<path d="M14.3287 41.9878H11.6855V42.3552H14.3287V41.9878Z" fill="white"/>
<path d="M14.3287 43.511H11.6855V43.8783H14.3287V43.511Z" fill="white"/>
<path d="M25.1242 34.3486H20.8823V43.8782H25.1242V34.3486Z" fill="#DBDBDB"/>
<path d="M22.2994 35.1746H21.5493V35.7582H22.2994V35.1746Z" fill="#C7C7C7"/>
<path d="M22.2994 36.4214H21.5493V37.0051H22.2994V36.4214Z" fill="#C7C7C7"/>
<path d="M22.2994 37.6677H21.5493V38.2514H22.2994V37.6677Z" fill="#C7C7C7"/>
<path d="M22.2994 38.9146H21.5493V39.4982H22.2994V38.9146Z" fill="#C7C7C7"/>
<path d="M22.2994 40.1626H21.5493V40.7463H22.2994V40.1626Z" fill="#C7C7C7"/>
<path d="M22.2994 41.4094H21.5493V41.9931H22.2994V41.4094Z" fill="#C7C7C7"/>
<path d="M22.2994 42.6562H21.5493V43.2399H22.2994V42.6562Z" fill="#C7C7C7"/>
<path d="M23.3808 35.1746H22.6294V35.7582H23.3808V35.1746Z" fill="#C7C7C7"/>
<path d="M23.3808 36.4214H22.6294V37.0051H23.3808V36.4214Z" fill="#C7C7C7"/>
<path d="M23.3808 37.6677H22.6294V38.2514H23.3808V37.6677Z" fill="#C7C7C7"/>
<path d="M23.3808 38.9146H22.6294V39.4982H23.3808V38.9146Z" fill="#C7C7C7"/>
<path d="M23.3808 40.1626H22.6294V40.7463H23.3808V40.1626Z" fill="#C7C7C7"/>
<path d="M23.3808 41.4094H22.6294V41.9931H23.3808V41.4094Z" fill="#C7C7C7"/>
<path d="M23.3808 42.6562H22.6294V43.2399H23.3808V42.6562Z" fill="#C7C7C7"/>
<path d="M24.4589 35.1746H23.7075V35.7582H24.4589V35.1746Z" fill="#C7C7C7"/>
<path d="M24.4589 36.4214H23.7075V37.0051H24.4589V36.4214Z" fill="#C7C7C7"/>
<path d="M24.4589 37.6677H23.7075V38.2514H24.4589V37.6677Z" fill="#C7C7C7"/>
<path d="M24.4589 38.9146H23.7075V39.4982H24.4589V38.9146Z" fill="#C7C7C7"/>
<path d="M24.4589 40.1626H23.7075V40.7463H24.4589V40.1626Z" fill="#C7C7C7"/>
<path d="M24.4589 41.4094H23.7075V41.9931H24.4589V41.4094Z" fill="#C7C7C7"/>
<path d="M24.4589 42.6562H23.7075V43.2399H24.4589V42.6562Z" fill="#C7C7C7"/>
<path d="M28.1 34.3486H25.124V43.8782H28.1V34.3486Z" fill="#A6A6A6"/>
<path d="M27.1863 43.1475H27.7969V42.5638H27.1863V43.1475Z" fill="#C7C7C7"/>
<path d="M27.1863 41.8997H27.7969V41.316H27.1863V41.8997Z" fill="#C7C7C7"/>
<path d="M27.1863 40.6528H27.7969V40.0692H27.1863V40.6528Z" fill="#C7C7C7"/>
<path d="M27.1863 39.4048H27.7969V38.8211H27.1863V39.4048Z" fill="#C7C7C7"/>
<path d="M27.1863 38.1594H27.7969V37.5757H27.1863V38.1594Z" fill="#C7C7C7"/>
<path d="M27.1863 36.9114H27.7969V36.3277H27.1863V36.9114Z" fill="#C7C7C7"/>
<path d="M27.1863 35.6646H27.7969V35.0809H27.1863V35.6646Z" fill="#C7C7C7"/>
<path d="M26.3069 43.1475H26.9175V42.5638H26.3069V43.1475Z" fill="#C7C7C7"/>
<path d="M26.3069 41.8997H26.9175V41.316H26.3069V41.8997Z" fill="#C7C7C7"/>
<path d="M26.3069 40.6528H26.9175V40.0692H26.3069V40.6528Z" fill="#C7C7C7"/>
<path d="M26.3069 39.4048H26.9175V38.8211H26.3069V39.4048Z" fill="#C7C7C7"/>
<path d="M26.3069 38.1594H26.9175V37.5757H26.3069V38.1594Z" fill="#C7C7C7"/>
<path d="M26.3069 36.9114H26.9175V36.3277H26.3069V36.9114Z" fill="#C7C7C7"/>
<path d="M26.3069 35.6646H26.9175V35.0809H26.3069V35.6646Z" fill="#C7C7C7"/>
<path d="M25.4305 43.1475H26.041V42.5638H25.4305V43.1475Z" fill="#C7C7C7"/>
<path d="M25.4305 41.8997H26.041V41.316H25.4305V41.8997Z" fill="#C7C7C7"/>
<path d="M25.4305 40.6528H26.041V40.0692H25.4305V40.6528Z" fill="#C7C7C7"/>
<path d="M25.4305 39.4048H26.041V38.8211H25.4305V39.4048Z" fill="#C7C7C7"/>
<path d="M25.4305 38.1594H26.041V37.5757H25.4305V38.1594Z" fill="#C7C7C7"/>
<path d="M25.4305 36.9114H26.041V36.3277H25.4305V36.9114Z" fill="#C7C7C7"/>
<path d="M25.4305 35.6646H26.041V35.0809H25.4305V35.6646Z" fill="#C7C7C7"/>
<path d="M53.753 23.4189H50.8218V26.8813H53.753V23.4189Z" fill="#DBDBDB"/>
<path d="M55.611 23.4189H53.7524V27.0081H55.611V23.4189Z" fill="#C7C7C7"/>
<path d="M55.7341 24.9473H53.8896V27.0081H55.7341V24.9473Z" fill="#DBDBDB"/>
<path d="M56.8851 24.9473H55.7344V27.0081H56.8851V24.9473Z" fill="#C7C7C7"/>
<path d="M54.4363 26.6548H49.6978V43.8785H54.4363V26.6548Z" fill="#EBEBEB"/>
<path d="M51.7292 27.3958H50.2393V28.005H51.7292V27.3958Z" fill="white"/>
<path d="M53.6349 27.3958H52.145V28.005H53.6349V27.3958Z" fill="white"/>
<path d="M51.7292 28.4299H50.2393V29.0392H51.7292V28.4299Z" fill="white"/>
<path d="M53.6349 28.4299H52.145V29.0392H53.6349V28.4299Z" fill="white"/>
<path d="M51.7292 29.4631H50.2393V30.0724H51.7292V29.4631Z" fill="white"/>
<path d="M53.6349 29.4631H52.145V30.0724H53.6349V29.4631Z" fill="white"/>
<path d="M51.7292 30.4973H50.2393V31.1066H51.7292V30.4973Z" fill="white"/>
<path d="M53.6349 30.4973H52.145V31.1066H53.6349V30.4973Z" fill="white"/>
<path d="M51.7292 31.5303H50.2393V32.1396H51.7292V31.5303Z" fill="white"/>
<path d="M53.6349 31.5303H52.145V32.1396H53.6349V31.5303Z" fill="white"/>
<path d="M51.7292 32.5645H50.2393V33.1737H51.7292V32.5645Z" fill="white"/>
<path d="M53.6349 32.5645H52.145V33.1737H53.6349V32.5645Z" fill="white"/>
<path d="M51.7292 33.5986H50.2393V34.2079H51.7292V33.5986Z" fill="white"/>
<path d="M53.6349 33.5986H52.145V34.2079H53.6349V33.5986Z" fill="white"/>
<path d="M51.7292 34.6318H50.2393V35.2411H51.7292V34.6318Z" fill="white"/>
<path d="M53.6349 34.6318H52.145V35.2411H53.6349V34.6318Z" fill="white"/>
<path d="M51.7292 35.666H50.2393V36.2753H51.7292V35.666Z" fill="white"/>
<path d="M53.6349 35.666H52.145V36.2753H53.6349V35.666Z" fill="white"/>
<path d="M51.7292 36.7002H50.2393V37.3095H51.7292V36.7002Z" fill="white"/>
<path d="M53.6349 36.7002H52.145V37.3095H53.6349V36.7002Z" fill="white"/>
<path d="M51.7292 37.7332H50.2393V38.3424H51.7292V37.7332Z" fill="white"/>
<path d="M53.6349 37.7332H52.145V38.3424H53.6349V37.7332Z" fill="white"/>
<path d="M51.7292 38.7673H50.2393V39.3766H51.7292V38.7673Z" fill="white"/>
<path d="M53.6349 38.7673H52.145V39.3766H53.6349V38.7673Z" fill="white"/>
<path d="M51.7292 39.8015H50.2393V40.4108H51.7292V39.8015Z" fill="white"/>
<path d="M53.6349 39.8015H52.145V40.4108H53.6349V39.8015Z" fill="white"/>
<path d="M51.7292 40.8347H50.2393V41.444H51.7292V40.8347Z" fill="white"/>
<path d="M53.6349 40.8347H52.145V41.444H53.6349V40.8347Z" fill="white"/>
<path d="M58.276 26.6548H54.436V43.8785H58.276V26.6548Z" fill="#C7C7C7"/>
<path d="M56.6674 41.4438H57.8911V40.8346H56.6674V41.4438Z" fill="#EBEBEB"/>
<path d="M55.103 41.4438H56.3267V40.8346H55.103V41.4438Z" fill="#EBEBEB"/>
<path d="M56.6674 40.4097H57.8911V39.8004H56.6674V40.4097Z" fill="#EBEBEB"/>
<path d="M55.103 40.4097H56.3267V39.8004H55.103V40.4097Z" fill="#EBEBEB"/>
<path d="M56.6674 39.3765H57.8911V38.7672H56.6674V39.3765Z" fill="#EBEBEB"/>
<path d="M55.103 39.3765H56.3267V38.7672H55.103V39.3765Z" fill="#EBEBEB"/>
<path d="M56.6674 38.3423H57.8911V37.733H56.6674V38.3423Z" fill="#EBEBEB"/>
<path d="M55.103 38.3423H56.3267V37.733H55.103V38.3423Z" fill="#EBEBEB"/>
<path d="M56.6674 37.3081H57.8911V36.6988H56.6674V37.3081Z" fill="#EBEBEB"/>
<path d="M55.103 37.3081H56.3267V36.6988H55.103V37.3081Z" fill="#EBEBEB"/>
<path d="M56.6674 36.2751H57.8911V35.6659H56.6674V36.2751Z" fill="#EBEBEB"/>
<path d="M55.103 36.2751H56.3267V35.6659H55.103V36.2751Z" fill="#EBEBEB"/>
<path d="M56.6674 35.2422H57.8911V34.6329H56.6674V35.2422Z" fill="#EBEBEB"/>
<path d="M55.103 35.2422H56.3267V34.6329H55.103V35.2422Z" fill="#EBEBEB"/>
<path d="M56.6674 34.2068H57.8911V33.5975H56.6674V34.2068Z" fill="#EBEBEB"/>
<path d="M55.103 34.2068H56.3267V33.5975H55.103V34.2068Z" fill="#EBEBEB"/>
<path d="M56.6674 33.1738H57.8911V32.5645H56.6674V33.1738Z" fill="#EBEBEB"/>
<path d="M55.103 33.1738H56.3267V32.5645H55.103V33.1738Z" fill="#EBEBEB"/>
<path d="M56.6674 32.1409H57.8911V31.5316H56.6674V32.1409Z" fill="#EBEBEB"/>
<path d="M55.103 32.1409H56.3267V31.5316H55.103V32.1409Z" fill="#EBEBEB"/>
<path d="M56.6674 31.1052H57.8911V30.4959H56.6674V31.1052Z" fill="#EBEBEB"/>
<path d="M55.103 31.1052H56.3267V30.4959H55.103V31.1052Z" fill="#EBEBEB"/>
<path d="M56.6674 30.0723H57.8911V29.463H56.6674V30.0723Z" fill="#EBEBEB"/>
<path d="M55.103 30.0723H56.3267V29.463H55.103V30.0723Z" fill="#EBEBEB"/>
<path d="M56.6674 29.0381H57.8911V28.4288H56.6674V29.0381Z" fill="#EBEBEB"/>
<path d="M55.103 29.0381H56.3267V28.4288H55.103V29.0381Z" fill="#EBEBEB"/>
<path d="M56.6674 28.0039H57.8911V27.3946H56.6674V28.0039Z" fill="#EBEBEB"/>
<path d="M55.103 28.0039H56.3267V27.3946H55.103V28.0039Z" fill="#EBEBEB"/>
<path d="M37.3188 32.6553H31.729V43.8783H37.3188V32.6553Z" fill="#C7C7C7"/>
<path d="M33.5978 33.627H32.6084V34.3143H33.5978V33.627Z" fill="#DBDBDB"/>
<path d="M33.5978 35.0964H32.6084V35.7838H33.5978V35.0964Z" fill="#DBDBDB"/>
<path d="M33.5978 36.5645H32.6084V37.2518H33.5978V36.5645Z" fill="#DBDBDB"/>
<path d="M33.5978 38.0327H32.6084V38.7201H33.5978V38.0327Z" fill="#DBDBDB"/>
<path d="M33.5978 39.502H32.6084V40.1893H33.5978V39.502Z" fill="#DBDBDB"/>
<path d="M33.5978 40.9702H32.6084V41.6576H33.5978V40.9702Z" fill="#DBDBDB"/>
<path d="M33.5978 42.4385H32.6084V43.1258H33.5978V42.4385Z" fill="#DBDBDB"/>
<path d="M35.0212 33.627H34.0317V34.3143H35.0212V33.627Z" fill="#DBDBDB"/>
<path d="M35.0212 35.0964H34.0317V35.7838H35.0212V35.0964Z" fill="#DBDBDB"/>
<path d="M35.0212 36.5645H34.0317V37.2518H35.0212V36.5645Z" fill="#DBDBDB"/>
<path d="M35.0212 38.0327H34.0317V38.7201H35.0212V38.0327Z" fill="#DBDBDB"/>
<path d="M35.0212 39.502H34.0317V40.1893H35.0212V39.502Z" fill="#DBDBDB"/>
<path d="M35.0212 40.9702H34.0317V41.6576H35.0212V40.9702Z" fill="#DBDBDB"/>
<path d="M35.0212 42.4385H34.0317V43.1258H35.0212V42.4385Z" fill="#DBDBDB"/>
<path d="M36.4406 33.627H35.4512V34.3143H36.4406V33.627Z" fill="#DBDBDB"/>
<path d="M36.4406 35.0964H35.4512V35.7838H36.4406V35.0964Z" fill="#DBDBDB"/>
<path d="M36.4406 36.5645H35.4512V37.2518H36.4406V36.5645Z" fill="#DBDBDB"/>
<path d="M36.4406 38.0327H35.4512V38.7201H36.4406V38.0327Z" fill="#DBDBDB"/>
<path d="M36.4406 39.502H35.4512V40.1893H36.4406V39.502Z" fill="#DBDBDB"/>
<path d="M36.4406 40.9702H35.4512V41.6576H36.4406V40.9702Z" fill="#DBDBDB"/>
<path d="M36.4406 42.4385H35.4512V43.1258H36.4406V42.4385Z" fill="#DBDBDB"/>
<path d="M37.3191 31.4866H33.5981V32.6565H37.3191V31.4866Z" fill="#DBDBDB"/>
<path d="M37.319 30.7625H34.96V31.4869H37.319V30.7625Z" fill="#EBEBEB"/>
<path d="M41.2408 32.6553H37.3188V43.8783H41.2408V32.6553Z" fill="#A6A6A6"/>
<path d="M40.0347 43.0168H40.8398V42.3295H40.0347V43.0168Z" fill="#C7C7C7"/>
<path d="M40.0347 41.5488H40.8398V40.8615H40.0347V41.5488Z" fill="#C7C7C7"/>
<path d="M40.0347 40.0793H40.8398V39.392H40.0347V40.0793Z" fill="#C7C7C7"/>
<path d="M40.0347 38.6099H40.8398V37.9225H40.0347V38.6099Z" fill="#C7C7C7"/>
<path d="M40.0347 37.1428H40.8398V36.4555H40.0347V37.1428Z" fill="#C7C7C7"/>
<path d="M40.0347 35.6736H40.8398V34.9862H40.0347V35.6736Z" fill="#C7C7C7"/>
<path d="M40.0347 34.2053H40.8398V33.518H40.0347V34.2053Z" fill="#C7C7C7"/>
<path d="M38.8765 43.0168H39.6816V42.3295H38.8765V43.0168Z" fill="#C7C7C7"/>
<path d="M38.8765 41.5488H39.6816V40.8615H38.8765V41.5488Z" fill="#C7C7C7"/>
<path d="M38.8765 40.0793H39.6816V39.392H38.8765V40.0793Z" fill="#C7C7C7"/>
<path d="M38.8765 38.6099H39.6816V37.9225H38.8765V38.6099Z" fill="#C7C7C7"/>
<path d="M38.8765 37.1428H39.6816V36.4555H38.8765V37.1428Z" fill="#C7C7C7"/>
<path d="M38.8765 35.6736H39.6816V34.9862H38.8765V35.6736Z" fill="#C7C7C7"/>
<path d="M38.8765 34.2053H39.6816V33.518H38.8765V34.2053Z" fill="#C7C7C7"/>
<path d="M37.7208 43.0168H38.5259V42.3295H37.7208V43.0168Z" fill="#C7C7C7"/>
<path d="M37.7208 41.5488H38.5259V40.8615H37.7208V41.5488Z" fill="#C7C7C7"/>
<path d="M37.7208 40.0793H38.5259V39.392H37.7208V40.0793Z" fill="#C7C7C7"/>
<path d="M37.7208 38.6099H38.5259V37.9225H37.7208V38.6099Z" fill="#C7C7C7"/>
<path d="M37.7208 37.1428H38.5259V36.4555H37.7208V37.1428Z" fill="#C7C7C7"/>
<path d="M37.7208 35.6736H38.5259V34.9862H37.7208V35.6736Z" fill="#C7C7C7"/>
<path d="M37.7208 34.2053H38.5259V33.518H37.7208V34.2053Z" fill="#C7C7C7"/>
<path d="M40.6468 31.4866H37.3188V32.6565H40.6468V31.4866Z" fill="#C7C7C7"/>
<path d="M39.1224 30.7625H37.3188V31.4869H39.1224V30.7625Z" fill="#DBDBDB"/>
<path d="M31.9999 59.6019C45.4046 59.6019 56.2712 58.7188 56.2712 57.6295C56.2712 56.5401 45.4046 55.657 31.9999 55.657C18.5952 55.657 7.72852 56.5401 7.72852 57.6295C7.72852 58.7188 18.5952 59.6019 31.9999 59.6019Z" fill="#EBEBEB"/>
<path d="M5.00635 44.8089L11.7545 44.7781L18.5039 44.7666L32.0003 44.7449L45.4966 44.7666L52.246 44.7769L58.9942 44.8089L52.246 44.8396L45.4966 44.8511L32.0003 44.8729L18.5039 44.8511L11.7545 44.8396L5.00635 44.8089Z" fill="#263238"/>
<path d="M58.705 43.8784H5.29443V44.809H58.705V43.8784Z" fill="#C7C7C7"/>
<path d="M9.03979 43.8784C9.12341 44.183 9.12341 44.5044 9.03979 44.809C8.9948 44.6583 8.97321 44.5016 8.97579 44.3443C8.97368 44.1867 8.99525 44.0296 9.03979 43.8784Z" fill="#263238"/>
<path d="M13.2136 43.8784C13.2581 44.0296 13.2797 44.1867 13.2776 44.3443C13.2802 44.5016 13.2586 44.6583 13.2136 44.809C13.13 44.5044 13.13 44.183 13.2136 43.8784Z" fill="#263238"/>
<path d="M17.3889 43.8784C17.4725 44.183 17.4725 44.5044 17.3889 44.809C17.3439 44.6583 17.3223 44.5016 17.3249 44.3443C17.3228 44.1867 17.3444 44.0296 17.3889 43.8784Z" fill="#263238"/>
<path d="M21.5632 43.8784C21.6077 44.0296 21.6293 44.1867 21.6272 44.3443C21.6298 44.5016 21.6082 44.6583 21.5632 44.809C21.4796 44.5044 21.4796 44.183 21.5632 43.8784Z" fill="#263238"/>
<path d="M25.7385 43.8784C25.8221 44.183 25.8221 44.5044 25.7385 44.809C25.6935 44.6583 25.6719 44.5016 25.6745 44.3443C25.6724 44.1867 25.694 44.0296 25.7385 43.8784Z" fill="#263238"/>
<path d="M29.9123 43.8784C29.9569 44.0296 29.9784 44.1867 29.9763 44.3443C29.9789 44.5016 29.9573 44.6583 29.9123 44.809C29.8287 44.5044 29.8287 44.183 29.9123 43.8784Z" fill="#263238"/>
<path d="M34.0881 43.8784C34.1718 44.183 34.1718 44.5044 34.0881 44.809C34.0431 44.6583 34.0216 44.5016 34.0241 44.3443C34.022 44.1867 34.0436 44.0296 34.0881 43.8784Z" fill="#263238"/>
<path d="M38.2619 43.8784C38.3065 44.0296 38.328 44.1867 38.3259 44.3443C38.3285 44.5016 38.3069 44.6583 38.2619 44.809C38.1783 44.5044 38.1783 44.183 38.2619 43.8784Z" fill="#263238"/>
<path d="M42.4373 43.8784C42.5209 44.183 42.5209 44.5044 42.4373 44.809C42.3923 44.6583 42.3707 44.5016 42.3733 44.3443C42.3711 44.1867 42.3927 44.0296 42.4373 43.8784Z" fill="#263238"/>
<path d="M46.6115 43.8784C46.6561 44.0296 46.6776 44.1867 46.6755 44.3443C46.6781 44.5016 46.6565 44.6583 46.6115 44.809C46.5279 44.5044 46.5279 44.183 46.6115 43.8784Z" fill="#263238"/>
<path d="M50.7869 43.8784C50.8705 44.183 50.8705 44.5044 50.7869 44.809C50.7419 44.6583 50.7203 44.5016 50.7229 44.3443C50.7207 44.1867 50.7423 44.0296 50.7869 43.8784Z" fill="#263238"/>
<path d="M54.9611 43.8784C55.0057 44.0296 55.0273 44.1867 55.0252 44.3443C55.0277 44.5016 55.0061 44.6583 54.9611 44.809C54.8775 44.5044 54.8775 44.183 54.9611 43.8784Z" fill="#263238"/>
<path d="M11.3175 43.8783C11.3175 43.8783 11.21 43.3753 10.9949 43.2985C10.7799 43.2217 10.6481 43.447 10.6481 43.447C10.6481 43.447 10.5981 42.9657 10.2922 42.8223C9.9863 42.679 9.75846 42.9734 9.75846 42.9734C9.75846 42.9734 9.52422 42.3679 9.10566 42.3679C8.6871 42.3679 8.47718 43.2639 8.47718 43.2639C8.47718 43.2639 8.23014 42.999 7.9767 43.1487C7.72326 43.2985 7.7207 43.8873 7.7207 43.8873L11.3175 43.8783Z" fill="#37474F"/>
<path d="M47.0088 43.8783C47.0088 43.8783 46.9013 43.3753 46.6862 43.2985C46.4712 43.2217 46.3406 43.447 46.3406 43.447C46.3406 43.447 46.2894 42.9657 45.9848 42.8223C45.6802 42.679 45.451 42.9734 45.451 42.9734C45.451 42.9734 45.2168 42.3679 44.7995 42.3679C44.3822 42.3679 44.1697 43.2639 44.1697 43.2639C44.1697 43.2639 43.924 42.999 43.6706 43.1487C43.4171 43.2985 43.4146 43.8873 43.4146 43.8873L47.0088 43.8783Z" fill="#455A64"/>
<path d="M20.8254 43.8783H17.043C17.043 43.8783 17.171 43.3459 17.418 43.3075C17.4946 43.2999 17.5717 43.3163 17.6386 43.3543C17.7056 43.3924 17.7591 43.4502 17.7918 43.5199C17.7918 43.5199 17.7803 42.7763 18.2487 42.6495C18.7172 42.5228 19.1089 43.1795 19.1089 43.1795C19.1089 43.1795 19.4033 42.8044 19.8027 42.8287C20.202 42.8531 20.3057 43.4687 20.3057 43.4687C20.3057 43.4687 20.6641 43.255 20.8254 43.8783Z" fill="#37474F"/>
<path d="M7.95622 43.8782H5.96582C5.96582 43.8782 5.96582 43.5826 6.1655 43.5032C6.21871 43.4803 6.27794 43.4752 6.33426 43.4889C6.39058 43.5025 6.44096 43.534 6.47782 43.5787C6.47782 43.5787 6.55718 43.0334 6.92198 43.0334C7.28678 43.0334 7.46214 43.5032 7.46214 43.5032C7.49308 43.4584 7.53648 43.4235 7.58698 43.4031C7.63748 43.3826 7.69286 43.3774 7.7463 43.388C7.94854 43.4136 7.95622 43.8782 7.95622 43.8782Z" fill="#455A64"/>
<path d="M22.3869 43.8782H20.3965C20.3965 43.8782 20.3965 43.5826 20.5962 43.5032C20.6494 43.4803 20.7086 43.4752 20.7649 43.4889C20.8212 43.5025 20.8716 43.534 20.9085 43.5787C20.9085 43.5787 20.9891 43.0334 21.3539 43.0334C21.7187 43.0334 21.8928 43.5032 21.8928 43.5032C21.9237 43.4584 21.9671 43.4235 22.0176 43.4031C22.0681 43.3826 22.1235 43.3774 22.177 43.388C22.3792 43.4136 22.3869 43.8782 22.3869 43.8782Z" fill="#455A64"/>
<path d="M55.1296 43.8782H53.1392C53.1392 43.8782 53.1392 43.5826 53.3388 43.5032C53.3921 43.4803 53.4513 43.4752 53.5076 43.4889C53.5639 43.5025 53.6143 43.534 53.6512 43.5787C53.6512 43.5787 53.7305 43.0334 54.0953 43.0334C54.4601 43.0334 54.6355 43.5032 54.6355 43.5032C54.6663 43.4582 54.7097 43.4233 54.7602 43.4028C54.8108 43.3824 54.8662 43.3772 54.9196 43.388C55.1219 43.4136 55.1296 43.8782 55.1296 43.8782Z" fill="#455A64"/>
<path d="M58.0339 43.8784H54.752C54.752 43.8784 54.7596 43.3895 55.0822 43.2602C55.1699 43.2233 55.2672 43.2159 55.3595 43.239C55.4518 43.2621 55.5341 43.3144 55.5942 43.3882C55.5942 43.3882 55.7222 42.4922 56.3276 42.4922C56.9331 42.4922 57.216 43.264 57.216 43.264C57.2669 43.19 57.3385 43.1325 57.4217 43.0986C57.5049 43.0648 57.5963 43.0559 57.6844 43.0733C58.0211 43.113 58.0339 43.8784 58.0339 43.8784Z" fill="#37474F"/>
<path d="M43.2445 6.18872H41.0557V7.42904H43.2445V6.18872Z" fill="#263238"/>
<path d="M43.5531 5.77148H40.7461V6.583H43.5531V5.77148Z" fill="#455A64"/>
<path d="M38.3509 7.41477L37.7544 8.01123L38.6966 8.95344L39.2931 8.35698L38.3509 7.41477Z" fill="#263238"/>
<path d="M38.2098 6.92151L37.2622 7.86914L37.8777 8.48461L38.8253 7.53697L38.2098 6.92151Z" fill="#455A64"/>
<path d="M45.0075 8.35593L45.604 8.95239L46.5462 8.01019L45.9497 7.41373L45.0075 8.35593Z" fill="#263238"/>
<path d="M45.4728 7.53748L46.4204 8.48511L47.0359 7.86964L46.0882 6.92201L45.4728 7.53748Z" fill="#455A64"/>
<path d="M47.3277 13.8068C47.9988 10.9458 46.2235 8.08248 43.3624 7.41143C40.5014 6.74038 37.638 8.51572 36.967 11.3768C36.2959 14.2378 38.0713 17.1011 40.9323 17.7722C43.7934 18.4432 46.6567 16.6679 47.3277 13.8068Z" fill="#455A64"/>
<path d="M42.0848 17.5819C44.8884 17.5819 47.1613 15.3091 47.1613 12.5054C47.1613 9.70177 44.8884 7.42896 42.0848 7.42896C39.2811 7.42896 37.0083 9.70177 37.0083 12.5054C37.0083 15.3091 39.2811 17.5819 42.0848 17.5819Z" fill="#263238"/>
<path d="M46.5851 13.2179C46.9434 10.7676 45.2476 8.49079 42.7973 8.13246C40.347 7.77412 38.0701 9.46999 37.7118 11.9203C37.3535 14.3706 39.0493 16.6474 41.4996 17.0058C43.9499 17.3641 46.2268 15.6682 46.5851 13.2179Z" fill="white"/>
<path opacity="0.5" d="M46.6343 12.5708H42.1543V8.09082C43.3425 8.09082 44.482 8.56282 45.3221 9.40298C46.1623 10.2431 46.6343 11.3827 46.6343 12.5708Z" fill="#AEDC81"/>
<path d="M42.194 8.41211H42.1069V9.09179H42.194V8.41211Z" fill="#C7C7C7"/>
<path d="M40.1076 8.94452L40.0322 8.98804L40.3721 9.57665L40.4474 9.53314L40.1076 8.94452Z" fill="#C7C7C7"/>
<path d="M38.5689 10.452L38.5254 10.5273L39.114 10.8672L39.1575 10.7918L38.5689 10.452Z" fill="#C7C7C7"/>
<path d="M38.6714 12.5273H37.9917V12.6144H38.6714V12.5273Z" fill="#C7C7C7"/>
<path d="M39.2676 14.3159L38.6763 14.6558L38.7198 14.7315L39.3111 14.3916L39.2676 14.3159Z" fill="#C7C7C7"/>
<path d="M40.3722 15.5621L40.0327 16.1509L40.1081 16.1944L40.4476 15.6056L40.3722 15.5621Z" fill="#C7C7C7"/>
<path d="M42.194 16.0498H42.1069V16.7295H42.194V16.0498Z" fill="#C7C7C7"/>
<path d="M43.9265 15.5598L43.8511 15.6033L44.1909 16.1919L44.2663 16.1484L43.9265 15.5598Z" fill="#C7C7C7"/>
<path d="M45.1837 14.2693L45.1401 14.3447L45.7287 14.6846L45.7723 14.6092L45.1837 14.2693Z" fill="#C7C7C7"/>
<path d="M46.3091 12.5273H45.6294V12.6144H46.3091V12.5273Z" fill="#C7C7C7"/>
<path d="M45.7293 10.4514L45.1406 10.7913L45.1841 10.8666L45.7728 10.5268L45.7293 10.4514Z" fill="#C7C7C7"/>
<path d="M44.1912 8.94642L43.8516 9.53516L43.927 9.57865L44.2666 8.98991L44.1912 8.94642Z" fill="#C7C7C7"/>
<path d="M42.1811 9.32599L42.3807 12.837L41.9302 12.8306L42.0595 9.32471L42.1811 9.32599Z" fill="#AEDC81"/>
<path d="M42.3039 12.5707C42.3039 12.6013 42.2948 12.6313 42.2777 12.6568C42.2606 12.6823 42.2364 12.7022 42.208 12.7139C42.1796 12.7255 42.1484 12.7285 42.1183 12.7225C42.0883 12.7164 42.0607 12.7015 42.039 12.6797C42.0174 12.6579 42.0028 12.6302 41.997 12.6001C41.9911 12.57 41.9944 12.5388 42.0063 12.5105C42.0182 12.4822 42.0383 12.4581 42.0639 12.4413C42.0895 12.4244 42.1196 12.4155 42.1503 12.4158C42.1706 12.4158 42.1907 12.4198 42.2094 12.4276C42.2281 12.4354 42.2451 12.4468 42.2594 12.4612C42.2736 12.4756 42.2849 12.4927 42.2926 12.5115C42.3002 12.5303 42.3041 12.5504 42.3039 12.5707Z" fill="#AEDC81"/>
<path d="M45.4002 12.6233L41.8892 12.8217L41.8956 12.3711L45.4015 12.5004L45.4002 12.6233Z" fill="#263238"/>
<path d="M42.3039 12.5707C42.3039 12.6013 42.2948 12.6313 42.2777 12.6568C42.2606 12.6823 42.2364 12.7022 42.208 12.7139C42.1796 12.7255 42.1484 12.7285 42.1183 12.7225C42.0883 12.7164 42.0607 12.7015 42.039 12.6797C42.0174 12.6579 42.0028 12.6302 41.997 12.6001C41.9911 12.57 41.9944 12.5388 42.0063 12.5105C42.0182 12.4822 42.0383 12.4581 42.0639 12.4413C42.0895 12.4244 42.1196 12.4155 42.1503 12.4158C42.1706 12.4158 42.1907 12.4198 42.2094 12.4276C42.2281 12.4354 42.2451 12.4468 42.2594 12.4612C42.2736 12.4756 42.2849 12.4927 42.2926 12.5115C42.3002 12.5303 42.3041 12.5504 42.3039 12.5707Z" fill="#AEDC81"/>
<path d="M23.9199 22.2082C24.5791 24.7234 25.438 26.3656 26.014 26.9339C27.3939 28.2959 30.366 28.5979 32.0377 29.2917C32.5817 29.5183 34.0857 26.0674 33.5289 25.7653C33.118 25.5413 28.3462 24.9371 27.9404 24.813C27.7318 24.749 26.1484 22.6869 25.2524 21.5272C23.8086 19.6687 23.559 20.8347 23.9199 22.2082Z" fill="#F7A9A0"/>
<path d="M34.6501 29.7756C34.3941 29.7692 34.3851 29.9036 34.7422 30.1993C35.0994 30.495 36.7621 31.3513 36.4126 31.9081C36.0632 32.4649 33.7349 31.2156 33.1781 30.6806C32.6213 30.1455 31.9058 29.0857 31.9058 29.0857C32.4088 29.238 33.6645 29.4902 34.6501 29.7756Z" fill="#F7A9A0"/>
<path d="M33.1266 25.6562C35.6047 26.0402 36.5903 26.5254 37.6757 27.7926C37.7996 27.9295 37.8744 28.1038 37.8882 28.2879C38.3848 28.846 38.2722 29.2492 38.2722 29.2492C38.5743 29.911 38.4002 30.3065 38.4002 30.3065C38.4002 30.3065 38.9762 30.9682 38.6331 31.383C38.2491 31.8489 37.517 30.8274 36.7707 30.5126C35.0594 29.7894 32.4187 29.2415 31.9067 29.0828L33.1266 25.6562Z" fill="#F7A9A0"/>
<path d="M35.5051 28.4982C36.0087 28.7032 36.4975 28.9427 36.9681 29.215C37.4642 29.5444 37.9349 29.9107 38.3761 30.3107C38.3791 30.3124 38.3826 30.313 38.386 30.3125C38.3894 30.312 38.3926 30.3104 38.3949 30.3079C38.3973 30.3054 38.3988 30.3021 38.3991 30.2987C38.3993 30.2952 38.3985 30.2918 38.3966 30.2889C37.6201 29.4322 36.6235 28.8048 35.5153 28.4752C35.4897 28.4675 35.4795 28.4867 35.5051 28.4982Z" fill="#263238"/>
<path d="M35.7905 27.4011C36.2654 27.6443 37.0949 28.0782 38.2558 29.2635C38.2558 29.2635 38.2673 29.2635 38.2635 29.2635C37.6334 28.4204 36.7811 27.7694 35.8021 27.3832C35.7713 27.3653 35.7598 27.3845 35.7905 27.4011Z" fill="#263238"/>
<path d="M35.9556 26.8148C36.7454 27.2602 37.187 27.6404 37.882 28.2906C37.882 28.2906 37.8922 28.2906 37.8884 28.2842C37.178 27.4624 36.8273 27.2448 35.9684 26.7853C35.9377 26.77 35.9249 26.7968 35.9556 26.8148Z" fill="#263238"/>
<path d="M26.7307 23.3486L24.4484 25.4875C24.4484 25.4875 23.5268 22.1697 23.5332 21.1201C23.5332 19.9361 24.1425 20.1973 24.9412 20.9921C25.74 21.787 26.7307 23.3486 26.7307 23.3486Z" fill="#AEDC81"/>
<path opacity="0.1" d="M26.7307 23.3486L24.4484 25.4875C24.4484 25.4875 23.5268 22.1697 23.5332 21.1201C23.5332 19.9361 24.1425 20.1973 24.9412 20.9921C25.74 21.787 26.7307 23.3486 26.7307 23.3486Z" fill="black"/>
<path d="M26.2632 23.0107C25.9355 23.2436 25.051 24.0807 24.9026 24.2177C24.8245 24.2907 24.5275 24.5915 24.4494 24.6631C24.4392 24.6721 24.4494 24.6862 24.4648 24.6772C24.6146 24.5415 24.7784 24.4212 24.9282 24.2843C25.0779 24.1473 26.0098 23.3294 26.2734 23.0222C26.2798 23.0158 26.2709 23.0055 26.2632 23.0107Z" fill="#263238"/>
<path d="M38.8256 49.015C38.5158 49.1161 29.5967 48.759 29.2627 48.5426C29.2217 48.5183 29.063 46.8031 29.063 46.8031L30.0947 40.2124L35.9507 40.2905L34.8204 45.9225C34.8204 45.9225 36.1107 46.5164 37.1744 47.0348C37.8297 47.3522 38.3993 47.6428 38.5299 47.749C38.8729 48.023 39.1366 48.9151 38.8256 49.015Z" fill="#F7A9A0"/>
<path d="M38.8266 49.0151C38.5169 49.1162 29.5953 48.7591 29.2625 48.5441C29.2228 48.5185 29.0615 46.8033 29.0615 46.8033L29.3802 44.7732L34.9982 45.0292L34.8164 45.9175C34.8164 45.9175 36.1054 46.5114 37.1703 47.0286C37.8257 47.346 38.3953 47.6365 38.5258 47.7428C38.8714 48.0244 39.1351 48.9165 38.8266 49.0151Z" fill="#EBEBEB"/>
<path d="M38.8212 49.0242C38.505 49.1227 29.5271 48.9141 29.1905 48.6888C29.0625 48.6056 29.0151 47.2949 29.0049 45.7103V45.6616L34.7994 45.732V45.8293C34.7994 45.8293 38.2004 47.4472 38.5447 47.7339C38.889 48.0207 39.1374 48.9295 38.8212 49.0242Z" fill="#C7C7C7"/>
<path d="M38.3092 49.05C36.3444 49.0704 29.4772 48.8861 29.1905 48.6903C29.0625 48.6071 29.0151 47.2964 29.0049 45.7117V45.6631L32.6337 45.7066L38.3092 49.05Z" fill="#A6A6A6"/>
<path d="M38.728 48.676C37.2151 48.603 31.1069 48.4533 29.6068 48.4968C29.594 48.4968 29.594 48.5058 29.6068 48.507C31.1044 48.6107 37.2125 48.7106 38.7268 48.7003C38.7588 48.7003 38.76 48.6773 38.728 48.676Z" fill="#263238"/>
<path d="M35.2812 45.8597C34.6886 45.7317 33.9577 45.8085 33.4892 46.2232C33.4713 46.2386 33.4892 46.2642 33.5135 46.2578C34.087 46.0876 34.677 45.9795 35.2735 45.9352C35.2827 45.9347 35.2914 45.931 35.298 45.9247C35.3047 45.9184 35.3088 45.9099 35.3098 45.9007C35.3107 45.8916 35.3083 45.8825 35.3031 45.8749C35.2978 45.8674 35.2901 45.862 35.2812 45.8597Z" fill="#263238"/>
<path d="M35.7045 46.1287C35.1119 46.0007 34.381 46.0788 33.9125 46.4923C33.8946 46.5076 33.9125 46.5332 33.9369 46.5281C34.5116 46.3585 35.103 46.2513 35.7007 46.2081C35.7112 46.2086 35.7215 46.2049 35.7293 46.1978C35.7371 46.1908 35.7418 46.1809 35.7423 46.1703C35.7428 46.1598 35.7391 46.1495 35.732 46.1417C35.725 46.1339 35.7151 46.1292 35.7045 46.1287Z" fill="#263238"/>
<path d="M36.1284 46.3975C35.5357 46.2695 34.8048 46.3476 34.3364 46.7611C34.3185 46.7777 34.3364 46.802 34.3607 46.7969C34.9341 46.6264 35.5241 46.5179 36.1207 46.4731C36.1298 46.4726 36.1385 46.4689 36.1452 46.4625C36.1518 46.4562 36.156 46.4477 36.1569 46.4386C36.1578 46.4295 36.1555 46.4203 36.1502 46.4128C36.145 46.4052 36.1372 46.3998 36.1284 46.3975Z" fill="#263238"/>
<path d="M35.3122 45.07L28.7752 44.7731C28.7752 44.7731 31.0344 35.5993 30.7938 35.3011C30.5378 34.9811 21.0734 37.3491 19.1816 35.0016C17.2437 32.5964 18.2152 29.134 18.2152 29.134H24.6702C24.6702 29.134 24.5422 30.0006 24.6293 30.414C24.6293 30.414 33.7173 29.024 35.6936 30.071C36.0776 30.2771 37.4856 31.4342 37.5086 32.5312C37.6328 37.376 35.3122 45.07 35.3122 45.07Z" fill="#455A64"/>
<path d="M35.3769 43.8862C34.6012 43.7889 33.8242 43.73 33.0447 43.6712C32.2652 43.6123 31.4857 43.5662 30.7061 43.5368C30.2658 43.5188 29.8255 43.5227 29.3852 43.5073C29.3829 43.5081 29.381 43.5096 29.3796 43.5115C29.3782 43.5135 29.3774 43.5158 29.3774 43.5182C29.3774 43.5206 29.3782 43.5229 29.3796 43.5249C29.381 43.5268 29.3829 43.5283 29.3852 43.5291C29.7769 43.5572 30.1673 43.6072 30.5589 43.6379L31.7186 43.7224C32.4981 43.7736 33.2777 43.8171 34.0572 43.8645C34.4962 43.8913 34.9353 43.9054 35.3756 43.9157C35.3788 43.9149 35.3817 43.913 35.3838 43.9105C35.3859 43.9079 35.3871 43.9047 35.3872 43.9014C35.3874 43.8981 35.3864 43.8948 35.3846 43.8921C35.3827 43.8893 35.38 43.8873 35.3769 43.8862Z" fill="#263238"/>
<path d="M31.8007 34.6498C30.545 34.6908 29.2958 34.7996 28.0465 34.9225C26.7972 35.0454 25.5402 35.1785 24.2807 35.2604C23.6561 35.3001 23.0289 35.3257 22.4017 35.3295C21.8807 35.3519 21.3593 35.2975 20.8542 35.1682C20.3526 35.0216 19.924 34.693 19.6522 34.2466C19.3791 33.7943 19.2001 33.2914 19.1262 32.7682C18.961 31.7097 19.1262 30.6281 19.3194 29.5836C19.3438 29.4556 19.3681 29.3276 19.3911 29.1894C19.3911 29.1778 19.3745 29.1727 19.3706 29.1894C19.1146 30.2428 18.8753 31.327 18.9521 32.415C18.9835 32.9488 19.1137 33.4723 19.3361 33.9586C19.5367 34.4312 19.8817 34.8282 20.3217 35.0927C20.771 35.3487 21.3022 35.4242 21.818 35.4498C22.4196 35.4806 23.0289 35.4498 23.6305 35.423C24.9182 35.3602 26.2007 35.2271 27.4807 35.094C28.7607 34.9609 30.0343 34.8303 31.3207 34.7663C31.4628 34.7586 31.6049 34.7535 31.747 34.7484C31.5524 35.9004 29.905 42.7586 29.8129 43.3014C29.8039 43.3551 29.8551 43.3718 29.8692 43.3167C30.1508 42.2479 31.7495 35.3807 31.8558 34.71C31.8575 34.7022 31.8573 34.6941 31.8552 34.6864C31.8531 34.6787 31.8492 34.6716 31.8438 34.6657C31.8384 34.6598 31.8317 34.6553 31.8242 34.6525C31.8167 34.6498 31.8086 34.6488 31.8007 34.6498Z" fill="#263238"/>
<path d="M36.84 49.2827H22.8701V50.8277H36.84V49.2827Z" fill="#AEDC81"/>
<path d="M10.5938 35.7288H11.3861L16.5061 41.586H15.7137L10.5938 35.7288Z" fill="#A6A6A6"/>
<path d="M20.5726 35.2642H9.56201V35.7275H20.5726V35.2642Z" fill="#A6A6A6"/>
<path d="M13.5815 35.7288H14.3739L19.4939 41.586H18.7015L13.5815 35.7288Z" fill="#A6A6A6"/>
<path d="M18.6755 46.5269C22.6537 46.5269 24.959 49.2904 24.959 52.5429C24.959 55.7953 22.8239 58.4961 18.9443 58.4961C14.6511 58.4961 12.6006 55.0811 12.6006 52.5134C12.6006 49.9457 14.6486 46.5269 18.6755 46.5269Z" fill="#37474F"/>
<path d="M18.0639 46.5269C21.8463 46.5269 24.0364 49.2904 24.0364 52.5429C24.0364 55.7953 22.0076 58.4961 18.3174 58.4961C14.2355 58.4961 12.2886 55.076 12.2886 52.5083C12.2886 49.9406 14.2355 46.5269 18.0639 46.5269Z" fill="#263238"/>
<path d="M18.1023 48.863C20.4063 48.863 21.7414 50.5475 21.7414 52.529C21.7414 54.5104 20.5049 56.1552 18.2572 56.1552C15.7689 56.1552 14.5811 54.0739 14.5811 52.5085C14.5811 50.943 15.7689 48.863 18.1023 48.863Z" fill="#C7C7C7"/>
<path d="M29.9371 39.2347V38.7112L16.5496 39.1425V40.3201C16.5496 40.3201 12.6724 44.6018 12.2808 49.0523L25.7054 49.3365L27.8622 49.2827H30.5105V46.5922C30.5105 46.5922 28.5086 45.133 28.8593 42.1518C28.9758 41.1624 29.9371 39.2347 29.9371 39.2347Z" fill="#AEDC81"/>
<path d="M24.4547 48.7132C24.3152 48.9692 22.2787 49.3366 18.4182 49.4403C14.943 49.5337 12.3472 49.4569 12.1462 49.2329C11.9452 49.0089 12.4572 45.0473 14.8099 42.902C17.1625 40.7567 20.4931 40.4483 22.6896 41.7283C24.6211 42.8508 26.0624 45.7039 24.4547 48.7132Z" fill="#AEDC81"/>
<path opacity="0.1" d="M25.1099 44.9629C24.9035 44.0248 24.4275 43.1675 23.7403 42.4963C23.0515 41.8061 22.1913 41.3118 21.2482 41.064C20.1961 40.8014 19.0943 40.8133 18.0482 41.0986C17.5246 41.2359 17.0184 41.4321 16.5391 41.6835C16.033 41.9555 15.5561 42.2784 15.1157 42.6474C14.9979 42.7447 14.8789 42.8419 14.7624 42.9418C14.7522 42.9495 14.7624 42.9635 14.7778 42.9559C15.2209 42.5662 15.7005 42.2203 16.2101 41.9229C16.6751 41.6573 17.1684 41.4448 17.6808 41.2893C18.6967 40.9716 19.7756 40.9109 20.8207 41.1127C21.7652 41.3025 22.6407 41.7448 23.3538 42.3927C24.0409 43.0113 24.5463 43.8057 24.8155 44.6903C25.1355 45.768 25.0306 46.9546 24.7119 48.0183C24.6696 48.1616 24.6235 48.3024 24.5762 48.4432C24.5762 48.4586 24.5941 48.4637 24.5992 48.4496C25.0293 47.345 25.3506 46.1546 25.1099 44.9629Z" fill="black"/>
<path d="M15.8045 49.8484C13.4736 49.8484 12.2397 49.7767 11.6138 49.5284L11.9043 48.7975C12.6365 49.0881 14.929 49.0829 18.6179 49.0407C21.343 49.0087 23.3539 48.7514 24.6083 48.2727L24.8886 49.0074C23.5318 49.5194 21.4838 49.7908 18.6269 49.8241C17.5427 49.8394 16.6083 49.8484 15.8045 49.8484Z" fill="#DBDBDB"/>
<path d="M30.1571 39.0553C30.1571 39.0553 30.2467 36.1267 30.1571 36.0115C30.0675 35.8963 16.5149 35.6518 16.1091 35.6876C15.7033 35.7235 15.6624 39.1436 15.6931 39.3036C15.7238 39.4636 29.8038 39.086 30.1571 39.0553Z" fill="#37474F"/>
<path d="M31.427 36.0704C31.3874 36.0243 29.6696 35.9757 29.5749 35.9731C29.4802 35.9706 29.4469 39.0925 29.4981 39.0899C29.5493 39.0874 31.3643 39.113 31.4245 39.0464C31.4846 38.9799 31.5128 36.1703 31.427 36.0704Z" fill="#455A64"/>
<path d="M21.9346 35.6902C21.886 35.7408 21.8543 35.8052 21.8437 35.8745C21.8276 35.9475 21.8161 36.0215 21.8091 36.0959C21.7925 36.2444 21.7835 36.3955 21.7758 36.5452C21.763 36.8473 21.7554 37.1507 21.7502 37.4553C21.7451 37.7599 21.7374 38.062 21.7502 38.3628C21.7514 38.5118 21.7616 38.6606 21.781 38.8083C21.7887 38.8797 21.8054 38.9498 21.8309 39.0169C21.8402 39.047 21.8568 39.0744 21.8791 39.0967C21.9014 39.119 21.9288 39.1355 21.9589 39.1449C21.9251 39.1439 21.8923 39.1333 21.8644 39.1142C21.8365 39.0952 21.8147 39.0685 21.8014 39.0374C21.7656 38.9705 21.7377 38.8996 21.7182 38.8262C21.682 38.6761 21.6585 38.5233 21.6478 38.3692C21.6242 38.0626 21.6165 37.755 21.6248 37.4476C21.6325 37.1417 21.6453 36.8345 21.6798 36.5286C21.6965 36.3756 21.7208 36.2235 21.7528 36.0729C21.7707 35.9984 21.7925 35.9249 21.8181 35.8527C21.8386 35.79 21.8744 35.7119 21.9346 35.6902Z" fill="#455A64"/>
<path d="M10.0714 35.2578H22.8701V27.3013H10.0714L10.0714 35.2578Z" fill="#37474F"/>
<path d="M10.0711 35.2578H19.3179V27.3013H10.0711L10.0711 35.2578Z" fill="#263238"/>
<path d="M15.1928 27.2998H14.1982V35.2563H15.1928V27.2998Z" fill="#AEDC81"/>
<path d="M19.3194 26.564H9.81152V27.3H19.3194V26.564Z" fill="#37474F"/>
<path d="M23.1566 26.564H19.3179V27.3H23.1566V26.564Z" fill="#263238"/>
<path d="M15.276 26.564H14.1138V27.3H15.276V26.564Z" fill="#AEDC81"/>
<path d="M11.4268 26.5974H20.7695V20.7888H11.4268V26.5974Z" fill="#37474F"/>
<path d="M11.4268 26.5974H18.1763V20.7888H11.4268V26.5974Z" fill="#263238"/>
<path d="M15.1642 20.7898H14.4385V26.5984H15.1642V20.7898Z" fill="#AEDC81"/>
<path d="M18.1765 20.2522H11.2363V20.7898H18.1765V20.2522Z" fill="#37474F"/>
<path d="M20.9782 20.2522H18.1763V20.7898H20.9782V20.2522Z" fill="#263238"/>
<path d="M15.2261 20.2522H14.3774V20.7898H15.2261V20.2522Z" fill="#AEDC81"/>
<path d="M47.8953 46.478C51.8748 46.478 54.1788 49.2415 54.1788 52.494C54.1788 55.7465 52.0438 58.4435 48.1628 58.4435C43.8684 58.4435 41.8179 55.0284 41.8179 52.462C41.8179 49.8956 43.8684 46.478 47.8953 46.478Z" fill="#37474F"/>
<path d="M47.2835 46.478C51.0659 46.478 53.2572 49.2415 53.2572 52.494C53.2572 55.7465 51.2272 58.4435 47.5382 58.4435C43.4563 58.4435 41.5068 55.0284 41.5068 52.462C41.5068 49.8956 43.4563 46.478 47.2835 46.478Z" fill="#263238"/>
<path d="M47.3218 48.8142C49.6258 48.8142 50.9621 50.4987 50.9621 52.4801C50.9621 54.4616 49.7256 56.1064 47.4766 56.1064C44.9896 56.1064 43.8018 54.0251 43.8018 52.4609C43.8018 50.8968 44.9896 48.8142 47.3218 48.8142Z" fill="#C7C7C7"/>
<path d="M41.4584 32.8911H39.893L38.8203 31.3167H40.6546L41.4584 32.8911Z" fill="#AEDC81"/>
<path d="M38.8203 31.3167L39.4488 32.2383L39.893 32.8911H41.4584L41.0347 32.0616L40.6533 31.3167H38.8203Z" fill="#AEDC81"/>
<path opacity="0.1" d="M38.8203 31.3167L39.4488 32.2383L41.0347 32.0616L40.6533 31.3167H38.8203Z" fill="black"/>
<path d="M45.2626 44.6401L43.7381 44.9908L42.3403 43.6955L44.1272 43.2859L45.2626 44.6401Z" fill="#AEDC81"/>
<path d="M42.3403 43.6955L43.1583 44.4545L43.7368 44.9908L45.2639 44.6401L44.6648 43.9272L44.1272 43.2859L42.3403 43.6955Z" fill="#AEDC81"/>
<path opacity="0.1" d="M42.3403 43.6955L43.1583 44.4545L44.6648 43.9272L44.1272 43.2859L42.3403 43.6955Z" fill="black"/>
<path d="M53.8334 47.2463L52.3524 48.0246C52.3524 48.0246 48.0631 47.2463 45.3124 47.8351C42.5617 48.4239 41.8193 49.8934 41.8193 49.8934H40.4292C40.4292 49.8934 41.6222 45.6553 43.6458 44.1167C45.6695 42.5782 48.922 42.9225 50.7204 43.8914C52.5188 44.8604 53.8334 47.2463 53.8334 47.2463Z" fill="#AEDC81"/>
<path opacity="0.1" d="M52.1963 47.7311C51.9094 47.4315 51.5987 47.1559 51.267 46.9068C50.9384 46.6513 50.591 46.4211 50.2277 46.2181C49.5234 45.8268 48.751 45.5731 47.9518 45.4706C46.3877 45.2786 44.7518 45.7343 43.5998 46.9362C42.9522 47.6172 42.4914 48.453 42.0536 49.2965C42.0472 49.3093 42.0651 49.3195 42.0715 49.3067C42.4424 48.5651 42.9108 47.8763 43.4642 47.2588C43.9974 46.6765 44.6611 46.2291 45.4008 45.9532C46.8766 45.4117 48.4728 45.6191 49.891 46.2732C50.2972 46.4572 50.6891 46.6711 51.0635 46.9132C51.4465 47.171 51.816 47.4483 52.1707 47.7439C52.173 47.7459 52.1759 47.7473 52.179 47.7477C52.182 47.7481 52.1851 47.7476 52.1879 47.7462C52.1907 47.7448 52.193 47.7426 52.1945 47.7399C52.196 47.7372 52.1966 47.7342 52.1963 47.7311Z" fill="black"/>
<path d="M35.921 32.0436C35.8979 32.0974 32.8067 32.6657 32.8067 32.6657C32.8067 32.6657 32.2947 32.3201 32.6109 31.8823L35.7123 31.2129C35.8316 31.3107 35.9162 31.4442 35.9538 31.5938C35.9913 31.7434 35.9798 31.9011 35.921 32.0436Z" fill="#263238"/>
<path d="M42.4094 28.0473V31.7145C42.4094 31.7145 40.4293 31.5417 39.9019 31.5238C39.3746 31.5059 37.0309 31.8092 37.0309 31.8092L36.8491 30.9875C36.8491 30.9875 38.6565 30.3564 39.4245 29.8636C40.1925 29.3708 41.077 28.4288 41.5518 28.2201C41.8206 28.0973 42.1141 28.0381 42.4094 28.0473Z" fill="#AEDC81"/>
<path d="M37.0388 30.8838C37.1566 31.0049 37.2454 31.151 37.2986 31.3113C37.3518 31.4716 37.368 31.6418 37.346 31.8092C37.346 31.8092 35.8702 32.0793 35.8523 32.0793C35.8645 31.9057 35.8224 31.7325 35.7318 31.5839C35.6412 31.4353 35.5066 31.3185 35.3467 31.2499L37.0388 30.8838Z" fill="#DBDBDB"/>
<path d="M42.4282 31.7148C42.9641 31.7148 43.3985 30.8941 43.3985 29.8818C43.3985 28.8695 42.9641 28.0488 42.4282 28.0488C41.8924 28.0488 41.458 28.8695 41.458 29.8818C41.458 30.8941 41.8924 31.7148 42.4282 31.7148Z" fill="#DBDBDB"/>
<path d="M42.4889 31.5175C42.9477 31.5175 43.3196 30.7851 43.3196 29.8817C43.3196 28.9782 42.9477 28.2458 42.4889 28.2458C42.0301 28.2458 41.6582 28.9782 41.6582 29.8817C41.6582 30.7851 42.0301 31.5175 42.4889 31.5175Z" fill="white"/>
<path d="M42.7406 32.896C43.0631 33.3683 44.3546 39.7914 44.6081 40.1139C44.8615 40.4365 45.3466 40.4595 45.3466 40.4595L46.2004 42.5818C46.2004 42.5818 44.0794 43.2512 42.9018 44.2189C41.3799 45.4694 39.9732 49.6154 39.9732 49.6154C39.7428 49.7766 36.8833 50.953 36.0986 50.999C36.0986 50.999 39.7454 46.9952 40.0423 41.4541C40.1575 39.3075 38.8366 36.2842 38.7508 34.7866C38.6561 33.1789 39.1425 32.896 39.9962 32.896H42.7406Z" fill="#AEDC81"/>
<path d="M35.9239 51.4562L35.353 50.916C38.553 47.5291 39.7332 42.1928 39.6397 40.7362C39.5911 39.99 39.3517 39.1554 39.097 38.2709C38.8257 37.3276 38.5185 36.2588 38.3879 35.0978C38.2663 34.02 38.3879 33.3237 38.7553 32.9077C39.1226 32.4917 39.6269 32.493 39.9623 32.4943H43.0087V33.2802H39.961C39.6679 33.2802 39.4682 33.2904 39.3415 33.4325C39.2148 33.5746 39.0497 33.9445 39.17 35.0108C39.298 36.1052 39.5783 37.0959 39.8535 38.0533C40.1197 38.98 40.3655 39.8543 40.4244 40.685C40.5242 42.2402 39.2967 47.9016 35.9239 51.4562Z" fill="#DBDBDB"/>
<path d="M44.6234 41.8665C44.8026 42.5269 45.3671 42.9468 45.8842 42.806C46.4013 42.6652 46.6765 42.0162 46.4961 41.357C46.3156 40.6978 45.7511 40.2754 45.234 40.4162C44.7169 40.557 44.4429 41.2073 44.6234 41.8665Z" fill="#DBDBDB"/>
<path d="M44.8158 41.8138C44.9758 42.4026 45.4648 42.7815 45.9077 42.6612C46.3505 42.5409 46.5784 41.9662 46.4197 41.3812C46.2609 40.7962 45.7707 40.4135 45.3291 40.5338C44.8875 40.6542 44.6558 41.225 44.8158 41.8138Z" fill="white"/>
<path opacity="0.1" d="M42.3593 41.76C42.2173 41.0957 42.0637 40.4339 41.9305 39.7683C41.7974 39.1027 41.6745 38.4358 41.5709 37.7664C41.4697 37.143 41.3609 36.5133 41.3213 35.8822C41.2816 35.223 41.3213 34.5574 41.6413 33.9622C41.6419 33.961 41.6424 33.9597 41.6425 33.9584C41.6427 33.9571 41.6426 33.9557 41.6423 33.9544C41.6419 33.9531 41.6413 33.9518 41.6405 33.9508C41.6396 33.9497 41.6386 33.9488 41.6374 33.9481C41.6362 33.9475 41.6349 33.947 41.6336 33.9469C41.6323 33.9467 41.6309 33.9468 41.6296 33.9471C41.6283 33.9475 41.6271 33.9481 41.626 33.9489C41.6249 33.9498 41.624 33.9508 41.6233 33.952C41.2944 34.432 41.1869 35.0093 41.1689 35.5814C41.1706 36.2122 41.2263 36.8417 41.3353 37.463C41.5221 38.8273 41.7784 40.1812 42.1033 41.5193C42.2889 42.2758 42.5283 43.0195 42.7843 43.7542C42.7843 43.7566 42.7852 43.7589 42.7869 43.7606C42.7886 43.7622 42.7909 43.7632 42.7933 43.7632C42.7956 43.7632 42.7979 43.7622 42.7996 43.7606C42.8013 43.7589 42.8022 43.7566 42.8022 43.7542C42.6495 43.0861 42.5018 42.4213 42.3593 41.76Z" fill="black"/>
<path opacity="0.1" d="M30.5103 46.5921V49.2801H28.2166V47.2449C28.2166 47.2449 26.9366 46.5985 26.6806 44.2472C26.4502 42.1173 28.15 39.2744 28.4726 38.7585L29.9331 38.7112V39.2347C29.9331 39.2347 28.9718 41.1624 28.8553 42.1518C28.5084 45.1329 30.5103 46.5921 30.5103 46.5921Z" fill="black"/>
<path d="M36.2796 49.9086C35.9699 50.0084 27.0496 49.6526 26.7155 49.4363C26.6758 49.4119 26.5171 47.6955 26.5171 47.6955L27.5488 41.1047L33.4048 41.1828L32.2745 46.8148C32.2745 46.8148 33.5635 47.4075 34.6284 47.9259C35.2838 48.2446 35.8534 48.5351 35.984 48.6401C36.3257 48.9166 36.5894 49.8087 36.2796 49.9086Z" fill="#F7A9A0"/>
<path d="M36.2807 49.9085C35.9697 50.0083 27.0494 49.6525 26.7166 49.4362C26.6756 49.4118 26.5156 47.6966 26.5156 47.6966L26.8343 45.6653L32.4523 45.9213L32.2743 46.807C32.2743 46.807 33.5633 47.401 34.6283 47.9181C35.2823 48.2368 35.8532 48.5274 35.9838 48.6323C36.3255 48.9178 36.5892 49.8086 36.2807 49.9085Z" fill="#EBEBEB"/>
<path d="M36.2745 49.92C35.9596 50.0186 26.9804 49.8086 26.6438 49.5834C26.5158 49.5002 26.4697 48.1907 26.4595 46.6061V46.5562L32.2527 46.6266V46.7251C32.2527 46.7251 35.6537 48.3418 35.998 48.6285C36.3423 48.9152 36.5907 49.8214 36.2745 49.92Z" fill="#C7C7C7"/>
<path d="M36.1809 49.568C34.6692 49.4964 28.561 49.3466 27.0609 49.3901C27.0481 49.3901 27.0481 49.3991 27.0609 49.3991C28.5585 49.504 34.6666 49.6039 36.1809 49.5936C36.2129 49.5924 36.2129 49.5693 36.1809 49.568Z" fill="#263238"/>
<path d="M32.7354 46.752C32.1427 46.624 31.4119 46.7021 30.9434 47.1156C30.9242 47.1322 30.9434 47.1565 30.9677 47.1514C31.5411 46.9808 32.1311 46.8722 32.7277 46.8276C32.7369 46.8271 32.7456 46.8234 32.7522 46.817C32.7588 46.8107 32.763 46.8022 32.7639 46.7931C32.7649 46.784 32.7625 46.7748 32.7573 46.7673C32.752 46.7597 32.7443 46.7543 32.7354 46.752Z" fill="#263238"/>
<path d="M33.1586 47.0221C32.566 46.8941 31.8351 46.9709 31.3666 47.3843C31.3487 47.4009 31.3666 47.4265 31.391 47.4201C31.9648 47.2495 32.5553 47.1409 33.1522 47.0963C33.1571 47.0967 33.162 47.0962 33.1667 47.0947C33.1714 47.0932 33.1757 47.0908 33.1794 47.0877C33.1832 47.0845 33.1863 47.0807 33.1885 47.0763C33.1908 47.072 33.1921 47.0673 33.1926 47.0624C33.193 47.0575 33.1924 47.0526 33.191 47.0479C33.1895 47.0433 33.1871 47.0389 33.184 47.0352C33.1808 47.0315 33.177 47.0284 33.1726 47.0261C33.1683 47.0239 33.1635 47.0225 33.1586 47.0221Z" fill="#263238"/>
<path d="M33.5825 47.2908C32.9898 47.1628 32.259 47.2396 31.7905 47.6543C31.7726 47.6697 31.7905 47.6953 31.8148 47.6889C32.3884 47.5194 32.9784 47.4113 33.5748 47.3663C33.5839 47.3659 33.5926 47.3621 33.5993 47.3558C33.6059 47.3495 33.6101 47.341 33.611 47.3319C33.612 47.3228 33.6096 47.3136 33.6043 47.3061C33.5991 47.2985 33.5913 47.2931 33.5825 47.2908Z" fill="#263238"/>
<path d="M32.7681 45.9639L26.2312 45.6656C26.2312 45.6656 28.4917 36.4919 28.251 36.1936C27.995 35.8723 19.3755 38.2416 17.4824 35.8941C15.5445 33.489 17.4824 29.4634 17.4824 29.4634H24.1089C24.1089 29.4634 24.1089 30.2007 23.6584 31.304C23.6584 31.304 31.172 29.9127 33.1521 30.9597C33.5425 31.1671 34.9441 32.3242 34.9672 33.4211C35.0824 38.2723 32.7681 45.9639 32.7681 45.9639Z" fill="#455A64"/>
<path d="M32.8313 44.7796C32.0556 44.6823 31.2774 44.6221 30.4979 44.5645C29.7184 44.5069 28.9401 44.4596 28.1593 44.4289C27.7203 44.4122 27.28 44.4161 26.8396 44.3994C26.8366 44.3994 26.8337 44.4006 26.8315 44.4028C26.8293 44.4049 26.8281 44.4079 26.8281 44.4109C26.8281 44.414 26.8293 44.4169 26.8315 44.4191C26.8337 44.4212 26.8366 44.4225 26.8396 44.4225C27.2313 44.4506 27.6217 44.4993 28.0134 44.53C28.4051 44.5607 28.7814 44.5889 29.1731 44.6145C29.9513 44.6669 30.7308 44.7092 31.5104 44.7578C31.9507 44.7847 32.3897 44.7988 32.8301 44.809C32.8333 44.8082 32.8361 44.8064 32.8382 44.8038C32.8403 44.8013 32.8416 44.7981 32.8417 44.7948C32.8418 44.7915 32.8409 44.7882 32.839 44.7854C32.8372 44.7827 32.8345 44.7806 32.8313 44.7796Z" fill="#263238"/>
<path d="M20.2542 30.0174C20.2456 30.0444 20.2344 30.0705 20.2209 30.0954C20.2195 30.0973 20.2187 30.0995 20.2187 30.1018C20.2187 30.1042 20.2195 30.1064 20.2209 30.1082C20.1441 30.3476 20.1121 30.601 20.0379 30.8417C19.9674 31.0971 19.811 31.3204 19.595 31.474C19.1419 31.7889 18.5979 31.931 18.0705 32.0615C18.0674 32.0625 18.0646 32.0644 18.0626 32.0671C18.0606 32.0697 18.0596 32.0729 18.0596 32.0762C18.0596 32.0796 18.0606 32.0828 18.0626 32.0854C18.0646 32.0881 18.0674 32.09 18.0705 32.091C18.3745 32.0927 18.6769 32.0464 18.9665 31.954C19.2387 31.8787 19.4952 31.7556 19.7243 31.5905C19.9395 31.4277 20.0929 31.1966 20.1595 30.9351C20.1917 30.7961 20.2169 30.6556 20.235 30.514C20.2647 30.3513 20.2822 30.1865 20.2875 30.0212C20.2856 30.0187 20.2833 30.0166 20.2805 30.015C20.2778 30.0135 20.2748 30.0125 20.2717 30.0121C20.2686 30.0118 20.2654 30.012 20.2624 30.0129C20.2594 30.0138 20.2566 30.0153 20.2542 30.0174Z" fill="#263238"/>
<path d="M24.7248 30.9761C24.3643 31.0801 24.0132 31.2141 23.6752 31.3767L23.6585 31.3844C23.6655 31.3636 23.6706 31.3421 23.6739 31.3204C23.6739 31.2948 23.6816 31.2705 23.6867 31.2449C23.6918 31.2193 23.6867 31.1924 23.6944 31.1655V31.1246C23.7379 31.1218 23.7804 31.11 23.8192 31.0899C23.858 31.0699 23.8922 31.042 23.9197 31.0081C23.9904 30.9099 24.038 30.797 24.0592 30.6778C24.0989 30.5294 24.136 30.3783 24.168 30.2273C24.2 30.0762 24.2345 29.8906 24.2614 29.7153C24.2939 29.5494 24.3132 29.3812 24.319 29.2122C24.319 29.2061 24.3166 29.2003 24.3123 29.196C24.308 29.1916 24.3021 29.1892 24.296 29.1892C24.2899 29.1892 24.284 29.1916 24.2797 29.196C24.2754 29.2003 24.2729 29.2061 24.2729 29.2122C24.2333 29.3671 24.2153 29.5271 24.1859 29.6833C24.1565 29.8394 24.1232 29.9969 24.0873 30.1531C24.0515 30.3092 24.0131 30.4654 23.9696 30.619C23.9261 30.7726 23.8928 30.9556 23.7341 31.003C23.4064 31.0964 23.5536 30.363 23.5677 30.2171C23.6009 29.8843 23.6214 29.5438 23.6803 29.2135C23.6803 29.2007 23.6611 29.1943 23.6585 29.2135C23.5869 29.5169 23.5062 29.8151 23.4525 30.1223C23.4256 30.2734 23.4064 30.4257 23.3897 30.5767C23.3632 30.7076 23.3738 30.8433 23.4205 30.9684C23.4408 31.0107 23.4711 31.0473 23.5088 31.0752C23.5465 31.1031 23.5904 31.1214 23.6368 31.1284L23.6265 31.163C23.6189 31.1873 23.6112 31.2116 23.6048 31.2359C23.5984 31.2602 23.5933 31.2858 23.5881 31.3102C23.5769 31.3391 23.5729 31.3703 23.5766 31.4011C23.5795 31.4097 23.5854 31.417 23.5933 31.4215C23.4537 31.4817 23.3129 31.5418 23.1747 31.6071C23.0009 31.6754 22.8327 31.7571 22.6717 31.8516C22.6525 31.8606 22.6717 31.8862 22.6857 31.8823C22.866 31.8318 23.0422 31.768 23.2131 31.6916C23.3885 31.625 23.5613 31.5534 23.7353 31.4804C24.0802 31.3538 24.4137 31.1984 24.7325 31.0158C24.7377 31.0148 24.7424 31.0117 24.7454 31.0072C24.7484 31.0028 24.7495 30.9974 24.7485 30.9921C24.7474 30.9868 24.7444 30.9822 24.7399 30.9792C24.7355 30.9762 24.73 30.9751 24.7248 30.9761Z" fill="#263238"/>
<path d="M34.7728 32.5876C34.546 31.921 34.0872 31.3581 33.48 31.0017C32.8566 30.6574 32.1296 30.5652 31.432 30.5434C30.6205 30.5191 29.8038 30.5614 28.9936 30.6126C28.1309 30.6663 27.2681 30.7482 26.4105 30.8686C25.5529 30.9889 24.7107 31.1361 23.8672 31.3178C23.6649 31.3614 23.464 31.4151 23.263 31.4714C23.2477 31.4714 23.2502 31.5047 23.263 31.5022C24.1014 31.3844 24.936 31.2462 25.7744 31.131C26.6128 31.0158 27.4601 30.9249 28.3075 30.8609C29.1549 30.7969 29.9933 30.761 30.8368 30.7482C31.528 30.738 32.2448 30.7482 32.9014 30.971C33.2261 31.0747 33.5268 31.2422 33.7859 31.4638C34.0404 31.6913 34.2489 31.9655 34.4003 32.2714C34.7459 32.9511 34.7779 33.7306 34.8125 34.4833C34.9123 36.7169 33.3059 43.8145 33.0205 44.955C33.0197 44.9649 33.0225 44.9747 33.0283 44.9828C33.0341 44.9908 33.0426 44.9966 33.0522 44.9991C33.0618 45.0015 33.072 45.0005 33.0809 44.9962C33.0899 44.9918 33.097 44.9845 33.1011 44.9754C33.4224 43.6878 35.0211 36.9831 35.0211 34.9684C35.0224 34.1646 35.0518 33.3454 34.7728 32.5876Z" fill="#263238"/>
<path d="M29.2112 35.4201C28.04 35.4611 26.8752 35.5699 25.7104 35.6928C24.5456 35.8157 23.3718 35.9488 22.1993 36.0307C21.6156 36.0704 21.0307 36.096 20.4457 36.0998C19.9594 36.1226 19.4725 36.0682 19.0032 35.9385C18.5265 35.7845 18.1259 35.4557 17.8819 35.0182C17.6258 34.5598 17.4594 34.0567 17.3916 33.536C17.238 32.4774 17.3916 31.3958 17.5721 30.3513C17.5952 30.2233 17.6169 30.0953 17.64 29.9584C17.64 29.9456 17.6233 29.9405 17.6208 29.9584C17.3763 31.0118 17.1574 32.096 17.2368 33.184C17.2658 33.7157 17.3867 34.2384 17.5939 34.7289C17.7745 35.1932 18.0959 35.5893 18.5129 35.8617C18.9424 36.0915 19.4211 36.214 19.9081 36.2189C20.4718 36.24 21.0363 36.231 21.599 36.192C22.7996 36.1293 23.9952 35.9961 25.1894 35.863C26.3836 35.7299 27.5702 35.5993 28.7657 35.5353C28.8937 35.5289 29.0307 35.5225 29.1625 35.5187C28.982 36.6643 27.446 43.5276 27.3603 44.0704C27.3513 44.1241 27.4 44.1408 27.4128 44.087C27.6688 43.0169 29.1664 36.151 29.2649 35.479C29.2666 35.4714 29.2665 35.4634 29.2645 35.4559C29.2625 35.4483 29.2587 35.4413 29.2534 35.4356C29.2481 35.4298 29.2415 35.4254 29.2342 35.4227C29.2268 35.42 29.2189 35.4191 29.2112 35.4201Z" fill="#263238"/>
<path d="M17.1027 30.281C17.1206 30.3066 25.8771 30.9798 25.9692 30.8979C26.0972 30.7814 25.2307 21.8099 24.4486 20.4941C24.2809 20.2137 23.6396 20.0665 23.0777 20.0717C22.9314 20.0709 22.7853 20.0834 22.6412 20.1088H22.6271C22.5108 20.1286 22.3987 20.1679 22.2956 20.2253C20.6137 21.2749 18.8191 25.4195 18.3673 26.6739C17.6185 28.7424 17.0374 30.1888 17.1027 30.281Z" fill="#AEDC81"/>
<path d="M24.0453 21.6384C23.6101 21.6384 22.8753 20.9357 22.7294 20.2765C22.7192 20.2304 22.8997 19.8374 23.0942 19.3485C23.212 19.0502 23.3361 18.7174 23.427 18.4051C23.4449 18.3398 25.2485 19.4509 25.2485 19.4509C25.0231 19.8094 24.8426 20.1941 24.7109 20.5965C24.699 20.6383 24.6909 20.6812 24.6865 20.7245C24.687 20.7317 24.687 20.739 24.6865 20.7462C24.652 21.0061 24.5099 21.6448 24.0453 21.6384Z" fill="#F7A9A0"/>
<path d="M24.6867 20.7285C24.6872 20.7357 24.6872 20.743 24.6867 20.7503C24.6176 20.7402 24.5495 20.7244 24.4832 20.7029C23.3312 20.3419 23.4515 18.8085 23.5001 18.4258C23.8342 18.5768 25.2524 19.4498 25.2524 19.4498C25.0273 19.8086 24.8464 20.1932 24.7136 20.5954C24.7011 20.639 24.6921 20.6835 24.6867 20.7285Z" fill="#263238"/>
<path d="M23.5869 16.0065C23.2708 16.6952 23.368 18.8225 23.8148 19.3499C24.4637 20.1179 25.6669 20.3496 26.3569 19.5381C27.025 18.7509 26.8496 15.9848 26.3376 15.4869C25.5812 14.7547 24.0554 14.9915 23.5869 16.0065Z" fill="#F7A9A0"/>
<path d="M25.4405 17.522C25.4405 17.522 25.4302 17.5297 25.4302 17.5361C25.4405 17.6781 25.4302 17.8445 25.3022 17.897C25.3022 17.897 25.3022 17.906 25.3022 17.9047C25.4597 17.8765 25.4725 17.6564 25.4405 17.522Z" fill="#263238"/>
<path d="M25.3061 17.3788C25.0757 17.3698 25.077 17.8332 25.2908 17.8409C25.5045 17.8486 25.5007 17.3852 25.3061 17.3788Z" fill="#263238"/>
<path d="M26.2699 17.5452C26.2699 17.5452 26.2814 17.5516 26.2801 17.558C26.2801 17.7 26.2955 17.8652 26.4248 17.9125C26.4248 17.9125 26.4248 17.9215 26.4248 17.9202C26.2661 17.8984 26.2405 17.6796 26.2699 17.5452Z" fill="#263238"/>
<path d="M26.3976 17.3953C26.6267 17.3774 26.6459 17.8394 26.4322 17.8548C26.2184 17.8702 26.2043 17.4081 26.3976 17.3953Z" fill="#263238"/>
<path d="M25.1241 17.1674C25.1845 17.1493 25.2439 17.128 25.302 17.1034C25.3682 17.0907 25.4282 17.0559 25.4723 17.0048C25.4832 16.9861 25.4876 16.9642 25.4848 16.9427C25.482 16.9212 25.4722 16.9012 25.4569 16.8858C25.422 16.8603 25.381 16.8446 25.338 16.8403C25.295 16.836 25.2516 16.8433 25.2124 16.8615C25.1271 16.8855 25.0539 16.9408 25.0076 17.0164C24.9983 17.0341 24.9943 17.0542 24.996 17.0742C24.9977 17.0942 25.0052 17.1133 25.0174 17.1292C25.0297 17.1451 25.0463 17.1572 25.0652 17.1639C25.0841 17.1707 25.1045 17.1719 25.1241 17.1674Z" fill="#263238"/>
<path d="M26.5761 17.1611C26.5137 17.1491 26.4522 17.1332 26.3918 17.1137C26.3247 17.107 26.262 17.0776 26.2138 17.0305C26.2009 17.0134 26.1938 16.9925 26.1938 16.971C26.1938 16.9495 26.2009 16.9286 26.2138 16.9115C26.2464 16.8828 26.286 16.8635 26.3285 16.8553C26.3711 16.8472 26.415 16.8507 26.4558 16.8654C26.5427 16.8818 26.6204 16.9302 26.6734 17.0011C26.6841 17.0175 26.69 17.0366 26.6903 17.0562C26.6907 17.0758 26.6854 17.0951 26.6753 17.1118C26.6651 17.1285 26.6504 17.1421 26.6328 17.1508C26.6153 17.1595 26.5956 17.1631 26.5761 17.1611Z" fill="#263238"/>
<path d="M25.3098 18.852C25.3443 18.8853 25.3789 18.9313 25.4378 18.9365C25.491 18.9349 25.5433 18.9222 25.5914 18.8993C25.5914 18.8993 25.6003 18.8993 25.5978 18.907C25.5773 18.9352 25.5496 18.9573 25.5176 18.9711C25.4856 18.9848 25.4505 18.9897 25.416 18.9851C25.3865 18.9776 25.36 18.9614 25.3399 18.9385C25.3198 18.9157 25.307 18.8873 25.3033 18.8571C25.2944 18.8507 25.3046 18.8469 25.3098 18.852Z" fill="#263238"/>
<path d="M25.8959 18.591C25.8357 18.6703 25.7559 18.7325 25.6642 18.7714C25.614 18.7909 25.5591 18.7945 25.5068 18.7817C25.3929 18.7522 25.389 18.6537 25.4095 18.5564C25.4217 18.5091 25.4389 18.4632 25.4607 18.4194C25.5837 18.5217 25.7362 18.5818 25.8959 18.591Z" fill="#263238"/>
<path d="M25.6642 18.7712C25.614 18.7907 25.5591 18.7942 25.5068 18.7814C25.3929 18.752 25.389 18.6534 25.4095 18.5562C25.47 18.5581 25.528 18.5804 25.5742 18.6194C25.6204 18.6584 25.6522 18.7119 25.6642 18.7712Z" fill="#FF9BBC"/>
<path d="M26.6436 16.1894C26.5655 16.0076 26.4746 15.8246 26.3645 15.7875C26.2544 15.7504 26.184 16.0192 25.9344 16.0358C25.5991 16.0588 25.4365 15.7504 24.9668 15.7171C24.2909 15.671 23.994 16.2291 23.9786 17.1916C23.9645 18.0467 23.4474 18.1273 23.4474 18.1273C23.4474 18.1273 23.1338 16.2419 23.665 15.6172C24.1962 14.9926 25.416 14.7212 26.2352 15.3126C26.5335 15.5289 26.6436 16.1894 26.6436 16.1894Z" fill="#263238"/>
<path d="M23.879 17.7923C23.879 17.7923 23.4861 17.0665 23.1622 17.1984C22.8384 17.3302 23.079 18.3504 23.4182 18.5206C23.4607 18.5462 23.5079 18.5628 23.5571 18.5696C23.6062 18.5764 23.6562 18.5732 23.704 18.5602C23.7518 18.5471 23.7965 18.5245 23.8354 18.4938C23.8743 18.463 23.9065 18.4247 23.9302 18.3811L23.879 17.7923Z" fill="#F7A9A0"/>
<path d="M23.2388 17.4861V17.495C23.4781 17.623 23.5831 17.879 23.6484 18.1261C23.6367 18.0993 23.6193 18.0753 23.5975 18.0558C23.5756 18.0364 23.5498 18.0219 23.5218 18.0134C23.4939 18.0049 23.4643 18.0025 23.4354 18.0065C23.4064 18.0105 23.3786 18.0207 23.354 18.0365C23.3463 18.0365 23.354 18.0518 23.354 18.0506C23.3998 18.0418 23.4471 18.0473 23.4897 18.0663C23.5323 18.0853 23.568 18.1169 23.592 18.1568C23.6308 18.2246 23.6626 18.2963 23.6868 18.3706C23.6957 18.3936 23.738 18.3872 23.7316 18.3603V18.3539C23.7751 18.0339 23.578 17.5578 23.2388 17.4861Z" fill="#263238"/>
<path d="M26.563 15.6276C26.3646 15.5803 25.2651 15.6135 24.771 15.826C24.277 16.0385 23.3989 16.7489 23.3541 16.786C23.3093 16.8231 23.0827 15.0107 24.5534 14.6804C26.1547 14.3195 26.563 15.6276 26.563 15.6276Z" fill="#AEDC81"/>
<path d="M23.4385 16.7118C23.4385 16.7118 24.41 15.4318 24.9502 15.1374C25.4903 14.843 26.6999 14.6792 27.4487 15.0094C28.0311 15.2654 26.6078 16.0155 26.6078 16.0155C26.5943 15.9541 26.5667 15.8966 26.5271 15.8477C26.4876 15.7989 26.4372 15.7599 26.3799 15.7339C26.0164 15.5892 25.3252 15.7006 24.931 15.8324C24.4343 16.0001 23.4385 16.7118 23.4385 16.7118Z" fill="#AEDC81"/>
<path opacity="0.2" d="M23.4385 16.7181C23.4385 16.7181 24.41 15.4304 24.9502 15.1373C25.4903 14.8442 26.6999 14.679 27.4487 15.0093C28.0311 15.2653 26.6078 16.0154 26.6078 16.0154C26.5943 15.954 26.5667 15.8965 26.5271 15.8476C26.4876 15.7988 26.4372 15.7598 26.3799 15.7338C26.0164 15.5891 25.3252 15.7005 24.931 15.8323C24.4343 16 23.4385 16.7181 23.4385 16.7181Z" fill="black"/>
<path d="M21.7414 22.6191C21.6595 25.1432 22.5913 29.8703 23.2774 30.1916C25.4918 31.2258 29.2179 31.2911 30.494 31.3026C31.0444 31.3026 31.8892 27.3884 31.3439 27.1682C30.9817 27.0223 25.5187 27.021 25.4227 26.8264C25.3267 26.6319 24.0249 23.821 23.463 22.2645C22.7167 20.1948 21.7887 21.1368 21.7414 22.6191Z" fill="#F7A9A0"/>
<path d="M30.7576 27.1155C30.7576 27.1155 32.4306 27.2179 33.5199 27.3356C34.1292 27.4009 35.1621 27.607 35.5858 27.8592C36.2258 28.2432 38.6373 30.2246 38.1688 30.8211C37.7439 31.36 35.8853 29.39 35.8853 29.39C35.8853 29.39 37.9333 31.2115 37.3061 31.7683C36.6789 32.3251 34.8741 29.8176 34.8741 29.8176C34.8741 29.8176 36.94 31.7376 36.1989 32.2086C35.6396 32.5632 33.877 30.3859 33.877 30.3859C33.877 30.3859 35.6421 32.0499 35.0815 32.4339C34.462 32.8652 32.7096 30.9568 32.7096 30.9568C31.1186 31.7094 30.0536 31.4163 29.3202 31.118C29.1397 31.0515 30.7576 27.1155 30.7576 27.1155Z" fill="#F7A9A0"/>
<path d="M35.2158 28.7145C35.4641 28.9193 35.7175 29.1254 35.9466 29.3545C36.1758 29.5837 36.3985 29.8166 36.6058 30.0637C36.8833 30.3814 37.1238 30.7297 37.3226 31.1018C36.922 30.4617 36.113 29.6425 35.8826 29.416C35.6522 29.1894 35.4359 28.9513 35.2068 28.7248C35.2004 28.7171 35.2094 28.7094 35.2158 28.7145Z" fill="#263238"/>
<path d="M34.3824 29.5283C34.6883 29.8035 35.0019 30.0672 35.2963 30.3565C35.5907 30.6458 35.8416 30.944 36.1142 31.2525C36.1347 31.2755 36.1142 31.2794 36.0925 31.2525C35.8083 30.9568 35.5229 30.7046 35.2362 30.4115C34.9495 30.1184 34.6717 29.8138 34.3747 29.5322C34.3696 29.5309 34.3773 29.5245 34.3824 29.5283Z" fill="#263238"/>
<path d="M33.5366 30.0979C34.0167 30.5097 34.4529 30.9699 34.8384 31.4714C34.8576 31.4957 34.832 31.4982 34.8102 31.4714C34.3865 31.0067 34.0576 30.6394 33.5225 30.1133C33.5187 30.1069 33.5366 30.0903 33.5366 30.0979Z" fill="#263238"/>
<path d="M35.3744 27.657C34.9768 27.4871 34.5547 27.3812 34.1239 27.3434C33.1946 27.2295 32.2602 27.1552 31.3258 27.0874C30.3914 27.0195 29.4429 26.9594 28.5008 26.9248C27.9709 26.9043 27.441 26.8886 26.9111 26.8775C26.3812 26.8672 26.2711 26.8864 25.7386 26.8928C25.7245 26.8928 25.7258 26.912 25.7386 26.9133C26.6666 26.9619 27.1786 27.0003 28.1066 27.049C29.0346 27.0976 29.96 27.1527 30.8855 27.2167C31.8109 27.2807 32.721 27.3447 33.6349 27.4471C34.077 27.4771 34.5153 27.5478 34.9444 27.6583C35.3647 27.8127 35.7546 28.0397 36.0964 28.329C36.488 28.6375 37.9562 30.0493 38.0906 30.2323C38.1072 30.2541 38.1136 30.2477 38.1047 30.2195C37.9984 29.8368 36.2333 28.0576 35.3744 27.657Z" fill="#263238"/>
<path d="M24.3846 24.2486L21.662 25.7923C21.662 25.7923 21.5468 22.3517 21.799 21.3302C22.0831 20.1782 22.6079 20.5776 23.1993 21.535C23.7906 22.4925 24.3846 24.2486 24.3846 24.2486Z" fill="#AEDC81"/>
<path opacity="0.1" d="M24.3846 24.2486L21.662 25.7923C21.662 25.7923 21.5468 22.3517 21.799 21.3302C22.0831 20.1782 22.6079 20.5776 23.1993 21.535C23.7906 22.4925 24.3846 24.2486 24.3846 24.2486Z" fill="black"/>
<path d="M24.0092 23.8082C23.6367 23.958 22.5794 24.5647 22.4041 24.6632C22.3119 24.7144 21.9509 24.9384 21.8588 24.9896C21.8473 24.996 21.8588 25.0127 21.8703 25.0063C22.0482 24.909 22.2351 24.8296 22.4143 24.7336C22.5935 24.6376 23.6943 24.0591 24.0169 23.821C24.0181 23.8198 24.0189 23.8182 24.0191 23.8165C24.0193 23.8148 24.0189 23.8131 24.018 23.8116C24.0172 23.8101 24.0158 23.809 24.0142 23.8084C24.0126 23.8078 24.0108 23.8077 24.0092 23.8082Z" fill="#263238"/>
<path d="M23.9555 22.9746C23.9133 22.8146 23.8697 22.6559 23.8211 22.4972C23.848 22.615 23.8787 22.7327 23.9094 22.8505C23.8109 22.6278 23.7097 22.4076 23.5997 22.1938H23.5933C23.7123 22.5407 23.8493 22.8812 23.9773 23.2255C24.1053 23.5698 24.2333 23.8988 24.3613 24.2354C24.3037 24.2802 24.2473 24.3238 24.1885 24.3634C24.1861 24.365 24.1844 24.3674 24.1838 24.3701C24.1832 24.3729 24.1837 24.3758 24.1853 24.3782C24.1868 24.3805 24.1892 24.3822 24.192 24.3828C24.1947 24.3834 24.1976 24.3829 24.2 24.3814C24.2704 24.3455 24.3408 24.3097 24.4137 24.2777C24.4222 24.2745 24.4291 24.2683 24.4331 24.2602C24.4372 24.2521 24.438 24.2428 24.4355 24.2342C24.2921 23.8156 24.1334 23.3906 23.9555 22.9746Z" fill="#263238"/>
<g opacity="0.5">
<path opacity="0.5" d="M54.351 21.4516C54.351 21.5704 54.3158 21.6865 54.2498 21.7853C54.1837 21.884 54.0899 21.961 53.9801 22.0064C53.8704 22.0518 53.7496 22.0636 53.6331 22.0403C53.5166 22.0171 53.4097 21.9598 53.3258 21.8757C53.2419 21.7916 53.1848 21.6845 53.1618 21.568C53.1388 21.4514 53.1508 21.3307 53.1965 21.221C53.2421 21.1113 53.3192 21.0177 53.4181 20.9519C53.517 20.8861 53.6332 20.8511 53.752 20.8513C53.8308 20.8513 53.9088 20.8669 53.9815 20.897C54.0543 20.9272 54.1204 20.9715 54.176 21.0272C54.2317 21.083 54.2758 21.1492 54.3058 21.222C54.3358 21.2948 54.3512 21.3729 54.351 21.4516Z" fill="#AEDC81"/>
<path opacity="0.5" d="M53.7526 22.4694C53.5495 22.4706 53.3506 22.4115 53.1813 22.2995C53.0119 22.1874 52.8796 22.0276 52.8013 21.8402C52.723 21.6528 52.7022 21.4464 52.7415 21.2472C52.7808 21.048 52.8785 20.8649 53.0221 20.7213C53.1657 20.5777 53.3487 20.4801 53.548 20.4408C53.7472 20.4014 53.9536 20.4223 54.141 20.5006C54.3284 20.5789 54.4882 20.7111 54.6003 20.8805C54.7123 21.0498 54.7714 21.2487 54.7702 21.4518C54.7685 21.7211 54.6607 21.979 54.4703 22.1695C54.2798 22.3599 54.0219 22.4677 53.7526 22.4694ZM53.7526 20.5622C53.5769 20.5622 53.4051 20.6142 53.259 20.7117C53.1128 20.8091 52.9988 20.9477 52.9313 21.1099C52.8638 21.2721 52.8458 21.4506 52.8796 21.623C52.9134 21.7954 52.9975 21.9539 53.1213 22.0786C53.2451 22.2032 53.403 22.2884 53.5751 22.3235C53.7473 22.3585 53.9259 22.3418 54.0886 22.2755C54.2512 22.2091 54.3906 22.0961 54.4891 21.9507C54.5876 21.8052 54.6409 21.6338 54.6422 21.4582C54.643 21.3408 54.6206 21.2244 54.5763 21.1158C54.532 21.0071 54.4666 20.9083 54.3839 20.825C54.3012 20.7417 54.2028 20.6756 54.0945 20.6305C53.9861 20.5854 53.8699 20.5622 53.7526 20.5622Z" fill="#AEDC81"/>
<path opacity="0.5" d="M17.6435 15.7109C17.6438 15.8296 17.6088 15.9458 17.543 16.0447C17.4772 16.1436 17.3835 16.2208 17.2738 16.2664C17.1641 16.312 17.0434 16.3241 16.9269 16.3011C16.8103 16.2781 16.7032 16.221 16.6192 16.1371C16.5351 16.0532 16.4778 15.9462 16.4545 15.8297C16.4312 15.7132 16.443 15.5925 16.4884 15.4827C16.5338 15.3729 16.6108 15.2791 16.7095 15.2131C16.8083 15.1471 16.9244 15.1118 17.0432 15.1118C17.2022 15.1118 17.3547 15.1749 17.4672 15.2872C17.5798 15.3995 17.6432 15.5519 17.6435 15.7109Z" fill="#AEDC81"/>
<path opacity="0.5" d="M17.0431 16.7296C16.8403 16.7309 16.6417 16.6719 16.4725 16.5602C16.3032 16.4484 16.171 16.2889 16.0925 16.1019C16.014 15.9149 15.9928 15.7089 16.0316 15.5098C16.0704 15.3107 16.1674 15.1277 16.3104 14.9838C16.4533 14.84 16.6357 14.7418 16.8346 14.7018C17.0334 14.6618 17.2396 14.6817 17.4271 14.759C17.6146 14.8363 17.7749 14.9675 17.8877 15.1361C18.0005 15.3046 18.0607 15.5028 18.0607 15.7056C18.0607 15.9761 17.9537 16.2356 17.763 16.4274C17.5724 16.6193 17.3136 16.7279 17.0431 16.7296ZM17.0431 14.8211C16.8653 14.8199 16.6912 14.8715 16.5429 14.9695C16.3946 15.0674 16.2788 15.2073 16.2101 15.3713C16.1415 15.5353 16.1233 15.716 16.1576 15.8904C16.192 16.0648 16.2775 16.225 16.4032 16.3507C16.5288 16.4764 16.6891 16.5618 16.8635 16.5962C17.0379 16.6306 17.2186 16.6123 17.3825 16.5437C17.5465 16.4751 17.6864 16.3592 17.7844 16.2109C17.8823 16.0626 17.934 15.8885 17.9327 15.7107C17.931 15.4753 17.8368 15.25 17.6703 15.0835C17.5038 14.9171 17.2785 14.8228 17.0431 14.8211Z" fill="#AEDC81"/>
<path opacity="0.5" d="M39.6926 24.621H31.9358V12.63H21.6996V15.7749H17.9966V15.6469H21.5716V12.502H32.0638V24.493H39.5646V21.1714H48.3441V17.9368H53.8161V20.4981H53.6881V18.0648H48.4721V21.2994H39.6926V24.621Z" fill="#AEDC81"/>
</g>
<path d="M19.1745 9.47203C19.0683 8.40707 18.3335 7.34595 17.0433 7.34595C15.7531 7.34595 15.0196 8.41219 14.9134 9.47203C14.7508 11.1168 15.8593 12.6067 17.0433 13.9661C18.2273 12.6119 19.3371 11.1219 19.1745 9.47203ZM17.0433 10.6547C16.8124 10.6547 16.5866 10.5862 16.3946 10.4579C16.2026 10.3296 16.053 10.1472 15.9647 9.93382C15.8764 9.72044 15.8533 9.48566 15.8985 9.25917C15.9436 9.03269 16.0549 8.82469 16.2183 8.66149C16.3817 8.49828 16.5898 8.3872 16.8163 8.3423C17.0429 8.2974 17.2776 8.3207 17.4909 8.40925C17.7042 8.49781 17.8864 8.64763 18.0145 8.83977C18.1427 9.03191 18.2109 9.25773 18.2107 9.48867C18.2113 9.64234 18.1816 9.79462 18.1233 9.93677C18.0649 10.0789 17.979 10.2081 17.8705 10.317C17.762 10.4258 17.6331 10.5121 17.4911 10.571C17.3492 10.6298 17.197 10.66 17.0433 10.6599V10.6547Z" fill="#AEDC81"/>
</svg>
