<svg width="25" height="24" viewBox="0 0 25 24" fill="none" xmlns="http://www.w3.org/2000/svg">
    <path clip-rule="evenodd" d="M16.785 2h3.267A2.46 2.46 0 0 1 22.5 4.47v3.294c0 1.363-1.096 2.47-2.448 2.47h-3.267a2.46 2.46 0 0 1-2.448-2.47V4.47A2.46 2.46 0 0 1 16.785 2zM4.949 2h3.265a2.46 2.46 0 0 1 2.45 2.47v3.294a2.46 2.46 0 0 1-2.45 2.47H4.95A2.46 2.46 0 0 1 2.5 7.764V4.47A2.46 2.46 0 0 1 4.949 2zM4.949 13.766h3.265a2.46 2.46 0 0 1 2.45 2.47v3.294A2.46 2.46 0 0 1 8.213 22H4.95A2.46 2.46 0 0 1 2.5 19.53v-3.293a2.46 2.46 0 0 1 2.449-2.471zM16.785 13.766h3.267c1.352 0 2.448 1.105 2.448 2.47v3.294A2.46 2.46 0 0 1 20.052 22h-3.267a2.46 2.46 0 0 1-2.448-2.47v-3.293a2.46 2.46 0 0 1 2.448-2.471z" stroke="#96A6A3" stroke-width="2" stroke-linecap="round" stroke-linejoin="round"/>
</svg>
