<svg width="12" height="12" viewBox="0 0 12 12" fill="none" xmlns="http://www.w3.org/2000/svg">
    <path opacity=".4" d="M9.404 4.51c-.225 0-.524-.005-.897-.005a1.668 1.668 0 0 1-1.654-1.667V1.228A.228.228 0 0 0 6.627 1H3.982C2.748 1 1.75 2.013 1.75 3.255v5.387C1.75 9.945 2.795 11 4.085 11h3.938a2.238 2.238 0 0 0 2.227-2.249V4.736c0-.127-.1-.23-.226-.23-.212.002-.465.005-.62.005z" fill="#24D39E"/>
    <path opacity=".4" d="M8.042 1.284a.239.239 0 0 0-.41.167v1.318c0 .553.455 1.008 1.008 1.008.348.004.832.005 1.243.004.211 0 .318-.252.172-.404L8.042 1.284z" fill="#24D39E"/>
    <path fill-rule="evenodd" clip-rule="evenodd" d="M4.487 5.694h1.692a.372.372 0 1 0 0-.745H4.487a.372.372 0 0 0 0 .745zm0 2.497h2.722a.372.372 0 1 0 0-.745H4.487a.372.372 0 0 0 0 .745z" fill="#24D39E"/>
</svg>
