<svg width="16" height="16" viewBox="0 0 16 16" fill="none" xmlns="http://www.w3.org/2000/svg">
    <path fill-rule="evenodd" clip-rule="evenodd" d="M5.688 1.958a4.593 4.593 0 0 1 4.69.039 4.887 4.887 0 0 1 2.29 4.177c-.034 1.694-.965 3.286-2.129 4.517a12.484 12.484 0 0 1-2.24 1.88.784.784 0 0 1-.27.096.546.546 0 0 1-.261-.08 12.343 12.343 0 0 1-3.226-3.031A6.186 6.186 0 0 1 3.334 6.09a4.77 4.77 0 0 1 2.354-4.132zm.842 4.838c.245.604.823.998 1.465.998a1.56 1.56 0 0 0 1.122-.467c.298-.302.465-.713.463-1.141a1.615 1.615 0 0 0-.975-1.496 1.564 1.564 0 0 0-1.729.346 1.637 1.637 0 0 0-.346 1.76z" fill="#24D39E"/>
    <ellipse opacity=".4" cx="8.001" cy="14" rx="3.333" ry=".667" fill="#24D39E"/>
</svg>
