<svg width="16" height="17" viewBox="0 0 16 17" fill="none" xmlns="http://www.w3.org/2000/svg">
    <path d="M14.667 10.302v.922c0 .153-.007.307-.02.46-.187 2.106-1.65 3.483-3.761 3.483H5.115c-1.07 0-1.971-.347-2.62-.976a3.061 3.061 0 0 1-.634-.822c.22-.268.468-.561.708-.855.408-.488.802-.97 1.05-1.284.367-.454 1.335-1.65 2.678-1.089.274.114.514.274.735.415.54.36.768.467 1.149.26.42-.227.694-.675.982-1.143a9.2 9.2 0 0 1 .474-.708c.728-.95 1.85-1.203 2.785-.642.468.28.869.635 1.243.995.08.08.16.155.234.228.1.1.434.435.768.756" fill="#fff"/>
    <path opacity=".4" d="M10.893 1.833H5.114c-2.264 0-3.78 1.584-3.78 3.943v5.448c0 .821.187 1.55.527 2.145.22-.268.468-.561.708-.856.408-.487.802-.969 1.05-1.282.366-.455 1.335-1.651 2.678-1.09.274.114.514.274.735.415.54.36.768.467 1.149.26.42-.227.694-.675.981-1.143.154-.248.308-.488.475-.708.728-.95 1.85-1.203 2.785-.642.468.28.869.635 1.243.995.08.08.16.155.234.228.1.1.434.434.768.756V5.776c0-2.359-1.517-3.943-3.774-3.943" fill="#fff"/>
    <path d="M7.636 6.364c0 .94-.782 1.721-1.72 1.721s-1.72-.782-1.72-1.72c0-.939.782-1.722 1.72-1.722s1.72.783 1.72 1.721" fill="#fff"/>
</svg>
