<svg width="34" height="34" viewBox="0 0 34 34" fill="none" xmlns="http://www.w3.org/2000/svg">
<rect width="34" height="34" rx="8" fill="#24D39E"/>
<path d="M24.0706 9.93372C23.6956 9.55047 23.1406 9.40872 22.6231 9.55872L10.5556 13.0455C10.0096 13.197 9.62257 13.6297 9.51832 14.1787C9.41182 14.7382 9.78382 15.4492 10.2698 15.7462L14.0431 18.0502C14.4301 18.2872 14.9296 18.228 15.2498 17.907L19.5706 13.5862C19.7881 13.3605 20.1481 13.3605 20.3656 13.5862C20.5831 13.803 20.5831 14.1562 20.3656 14.3812L16.0373 18.702C15.7163 19.023 15.6563 19.521 15.8926 19.9087L18.1981 23.6962C18.4681 24.1455 18.9331 24.4012 19.4431 24.4012C19.5031 24.4012 19.5706 24.4012 19.6306 24.393C20.2156 24.3187 20.6806 23.9205 20.8531 23.358L24.4306 11.3812C24.5881 10.8712 24.4456 10.3162 24.0706 9.93372Z" fill="white"/>
<path opacity="0.4" fill-rule="evenodd" clip-rule="evenodd" d="M10.2576 20.6058C10.1136 20.6058 9.96962 20.551 9.86013 20.4408C9.64037 20.221 9.64037 19.8655 9.86013 19.6458L10.8839 18.6213C11.1036 18.4023 11.4599 18.4023 11.6796 18.6213C11.8986 18.841 11.8986 19.1973 11.6796 19.417L10.6551 20.4408C10.5456 20.551 10.4016 20.6058 10.2576 20.6058ZM13.0785 21.5001C12.9345 21.5001 12.7905 21.4453 12.681 21.3351C12.4613 21.1153 12.4613 20.7598 12.681 20.5401L13.7048 19.5156C13.9245 19.2966 14.2808 19.2966 14.5005 19.5156C14.7195 19.7353 14.7195 20.0916 14.5005 20.3113L13.476 21.3351C13.3665 21.4453 13.2225 21.5001 13.0785 21.5001ZM13.2688 24.1761C13.3783 24.2863 13.5223 24.3411 13.6663 24.3411C13.8103 24.3411 13.9543 24.2863 14.0638 24.1761L15.0883 23.1523C15.3073 22.9326 15.3073 22.5763 15.0883 22.3566C14.8685 22.1376 14.5123 22.1376 14.2925 22.3566L13.2688 23.3811C13.049 23.6008 13.049 23.9563 13.2688 24.1761Z" fill="white"/>
</svg>
