<svg width="28" height="28" viewBox="0 0 28 28" fill="none" xmlns="http://www.w3.org/2000/svg">
<rect width="28" height="28" rx="14" fill="#E9ECEC"/>
<path d="M14 14.6668C14.3682 14.6668 14.6667 14.3684 14.6667 14.0002C14.6667 13.632 14.3682 13.3335 14 13.3335C13.6318 13.3335 13.3333 13.632 13.3333 14.0002C13.3333 14.3684 13.6318 14.6668 14 14.6668Z" stroke="#96A6A3" stroke-width="2" stroke-linecap="round" stroke-linejoin="round"/>
<path d="M18.6667 14.6668C19.0349 14.6668 19.3333 14.3684 19.3333 14.0002C19.3333 13.632 19.0349 13.3335 18.6667 13.3335C18.2985 13.3335 18 13.632 18 14.0002C18 14.3684 18.2985 14.6668 18.6667 14.6668Z" stroke="#96A6A3" stroke-width="2" stroke-linecap="round" stroke-linejoin="round"/>
<path d="M9.33332 14.6668C9.70151 14.6668 9.99999 14.3684 9.99999 14.0002C9.99999 13.632 9.70151 13.3335 9.33332 13.3335C8.96513 13.3335 8.66666 13.632 8.66666 14.0002C8.66666 14.3684 8.96513 14.6668 9.33332 14.6668Z" stroke="#96A6A3" stroke-width="2" stroke-linecap="round" stroke-linejoin="round"/>
</svg>
