<svg width="34" height="34" viewBox="0 0 34 34" fill="none" xmlns="http://www.w3.org/2000/svg">
<path d="M26.9999 19.7021V21.0856C26.9999 21.3152 26.9899 21.5468 26.9699 21.7764C26.6893 24.9355 24.4949 26.9998 21.3286 26.9998H12.6713C11.0681 26.9998 9.71535 26.4794 8.74341 25.536C8.36265 25.1861 8.042 24.7751 7.7915 24.3039C8.12217 23.9018 8.49291 23.4617 8.85363 23.0206C9.46485 22.2887 10.056 21.5659 10.4268 21.0957C10.9779 20.4139 12.4308 18.6193 14.4448 19.4615C14.8556 19.6319 15.2164 19.8726 15.547 20.0831C16.3586 20.6245 16.6993 20.7849 17.2705 20.4741C17.9017 20.1332 18.3125 19.4615 18.7434 18.7597C18.9739 18.3878 19.2043 18.0278 19.4548 17.697C20.547 16.2734 22.2304 15.8924 23.6332 16.7345C24.3346 17.1556 24.9358 17.687 25.4969 18.2273C25.6172 18.3477 25.7374 18.4589 25.8476 18.5692C25.9979 18.7196 26.4989 19.2209 26.9999 19.7021Z" fill="#96A6A3"/>
<path opacity="0.4" d="M21.3387 7H12.6713C9.27455 7 7 9.37607 7 12.9141V21.086C7 22.3181 7.28056 23.4119 7.79158 24.3042C8.12224 23.9022 8.49299 23.4621 8.85371 23.0199C9.46493 22.2891 10.0561 21.5662 10.4269 21.096C10.978 20.4143 12.4309 18.6197 14.4449 19.4618C14.8557 19.6323 15.2164 19.8729 15.5471 20.0834C16.3587 20.6248 16.6994 20.7852 17.2705 20.4734C17.9018 20.1336 18.3126 19.4618 18.7435 18.759C18.9739 18.3881 19.2044 18.0282 19.4549 17.6973C20.5471 16.2737 22.2305 15.8927 23.6333 16.7349C24.3347 17.1559 24.9359 17.6873 25.497 18.2277C25.6172 18.348 25.7375 18.4593 25.8477 18.5696C25.998 18.7189 26.499 19.2202 27 19.7025V12.9141C27 9.37607 24.7255 7 21.3387 7Z" fill="#96A6A3"/>
<path d="M16.4543 13.7964C16.4543 15.205 15.2809 16.378 13.8731 16.378C12.4663 16.378 11.293 15.205 11.293 13.7964C11.293 12.3888 12.4663 11.2148 13.8731 11.2148C15.2809 11.2148 16.4543 12.3888 16.4543 13.7964Z" fill="#96A6A3"/>
</svg>
