<svg width="8" height="8" viewBox="0 0 8 8" fill="none" xmlns="http://www.w3.org/2000/svg">
<path d="M4.91412 0.86084C4.94698 0.860782 4.97952 0.867199 5.00989 0.879724C5.04026 0.89225 5.06786 0.910639 5.09112 0.93384L7.56612 3.40884C7.61299 3.45572 7.63932 3.5193 7.63932 3.58559C7.63932 3.65188 7.61299 3.71546 7.56612 3.76234C7.32612 4.00234 7.03012 4.05634 6.81462 4.05634C6.72612 4.05634 6.64712 4.04734 6.58462 4.03684L5.01762 5.60384C5.05888 5.77005 5.08564 5.93951 5.09762 6.11034C5.12062 6.46134 5.08162 6.95384 4.73762 7.29784C4.69074 7.34471 4.62717 7.37104 4.56087 7.37104C4.49458 7.37104 4.43101 7.34471 4.38412 7.29784L2.96962 5.88384L1.37862 7.47484C1.28112 7.57234 0.769124 7.92584 0.671624 7.82834C0.574124 7.73084 0.927624 7.21834 1.02512 7.12134L2.61612 5.53034L1.20212 4.11584C1.15526 4.06896 1.12893 4.00538 1.12893 3.93909C1.12893 3.8728 1.15526 3.80922 1.20212 3.76234C1.54612 3.41834 2.03862 3.37884 2.38962 3.40234C2.56045 3.41431 2.72992 3.44108 2.89612 3.48234L4.46312 1.91584C4.45004 1.8397 4.44335 1.7626 4.44312 1.68534C4.44312 1.47034 4.49712 1.17434 4.73762 0.93384C4.78448 0.887106 4.84795 0.860854 4.91412 0.86084Z" fill="#96A6A3"/>
</svg>
