<svg width="24" height="20" viewBox="0 0 24 20" fill="none" xmlns="http://www.w3.org/2000/svg">
<path d="M23 14.9655V5.03451C23 2.80004 21.2028 1 18.9718 1H5.0282C2.79723 1 1 2.79999 1 5.03451V14.9655C1 17.2 2.79717 19 5.0282 19H18.9718C21.2028 19 23 17.2002 23 14.9657V14.9655ZM22.3803 12.7929H17.4846C15.9353 12.7929 14.696 11.5517 14.696 9.99994C14.696 8.44823 15.9353 7.20697 17.4846 7.20697H22.3803V12.7929ZM1.61988 14.9655V5.03451C1.61988 3.14142 3.13824 1.62063 5.02842 1.62063H18.972C20.8621 1.62063 22.3806 3.14137 22.3806 5.03451V6.58623H17.4846C15.5945 6.58623 14.076 8.10696 14.076 10.0001C14.076 11.8933 15.5944 13.414 17.4846 13.414H22.3803V14.9657C22.3803 16.8588 20.862 18.3796 18.9718 18.3796H5.0282C3.16917 18.3794 1.61988 16.8589 1.61988 14.9657V14.9655Z" fill="#96A6A3" stroke="#96A6A3" stroke-width="0.9"/>
</svg>
