<svg width="24" height="24" viewBox="0 0 24 24" fill="none" xmlns="http://www.w3.org/2000/svg">
    <g filter="url(#a)">
        <rect width="24" height="24" rx="12" fill="#121212" fill-opacity=".15"/>
        <path d="M13.828 4.722a.5.5 0 0 1 .354.146l4.95 4.95a.5.5 0 0 1 0 .707c-.48.48-1.072.588-1.503.588-.177 0-.335-.018-.46-.04l-3.134 3.135c.082.332.136.671.16 1.013.046.702-.032 1.687-.72 2.375a.5.5 0 0 1-.707 0l-2.829-2.828-3.182 3.182c-.195.195-1.219.902-1.414.707-.195-.195.512-1.22.707-1.414l3.182-3.182-2.828-2.83a.5.5 0 0 1 0-.706c.688-.688 1.673-.767 2.375-.72.342.024.68.077 1.013.16l3.134-3.133a2.772 2.772 0 0 1-.04-.461c0-.43.108-1.022.589-1.503a.5.5 0 0 1 .353-.146zm.122 2.112v-.002.002zm0-.002v.002a.5.5 0 0 1-.122.51l-3.535 3.534a.5.5 0 0 1-.511.12H9.78l-.014-.004a4.928 4.928 0 0 0-1.053-.192c-.422-.028-.836.008-1.175.15l5.51 5.509c.141-.34.177-.753.149-1.175a4.929 4.929 0 0 0-.192-1.054l-.004-.013v-.001a.5.5 0 0 1 .12-.512l3.536-3.535a.5.5 0 0 1 .532-.115l.096.022c.087.017.208.034.344.034.114 0 .23-.011.343-.04l-4.045-4.044c-.029.113-.04.23-.04.343 0 .155.021.31.062.46h.001z" fill="#fff"/>
    </g>
    <defs>
        <filter id="a" x="-20" y="-20" width="64" height="64" filterUnits="userSpaceOnUse" color-interpolation-filters="sRGB">
            <feFlood flood-opacity="0" result="BackgroundImageFix"/>
            <feGaussianBlur in="BackgroundImage" stdDeviation="10"/>
            <feComposite in2="SourceAlpha" operator="in" result="effect1_backgroundBlur_265_4067"/>
            <feBlend in="SourceGraphic" in2="effect1_backgroundBlur_265_4067" result="shape"/>
        </filter>
    </defs>
</svg>
