<svg width="18" height="18" viewBox="0 0 18 18" fill="none" xmlns="http://www.w3.org/2000/svg">
    <path fill-rule="evenodd" clip-rule="evenodd" d="m2.315 12.236.577-4.646c.351-1.658 1.345-2.34 2.293-2.34h7.616c.961 0 1.989.634 2.287 2.34l.583 4.646c.478 3.411-1.279 4.264-3.572 4.264H5.88c-2.287 0-3.99-1.235-3.566-4.264zm8.862-3.125a.673.673 0 0 0 .663-.682.673.673 0 0 0-.663-.682.673.673 0 0 0-.663.682c0 .377.297.682.663.682zM7.498 8.43a.673.673 0 0 1-.662.682.673.673 0 0 1-.663-.682c0-.377.297-.682.663-.682.366 0 .662.305.662.682z" fill="#fff"/>
    <path opacity=".4" d="M5.27 5.08a.376.376 0 0 0 .032.17H6.38a.487.487 0 0 0 .033-.17 2.608 2.608 0 0 1 2.613-2.603 2.608 2.608 0 0 1 2.613 2.604.486.486 0 0 0 0 .169h1.104a.486.486 0 0 0 0-.17A3.744 3.744 0 0 0 8.996 1.5 3.744 3.744 0 0 0 5.25 5.08h.02z" fill="#fff"/>
</svg>
